<svg xmlns="http://www.w3.org/2000/svg" xmlns:xlink="http://www.w3.org/1999/xlink" zoomAndPan="magnify" preserveAspectRatio="xMidYMid meet" version="1.0" viewBox="69.86 26.77 160.27 36.75"><defs><clipPath id="e92f2efcc1"><path d="M 69.859375 26.769531 L 89.359375 26.769531 L 89.359375 63.519531 L 69.859375 63.519531 Z M 69.859375 26.769531 " clip-rule="nonzero"/></clipPath><clipPath id="d223b3b54b"><path d="M 87.394531 28.046875 C 86.328125 28.75 85.15625 30.332031 85.15625 31.667969 L 84.84375 39.898438 C 84.84375 42.148438 83.742188 44.222656 81.914062 45.457031 L 71.574219 52.417969 C 70.503906 53.121094 69.847656 54.351562 69.847656 55.6875 L 69.847656 58.996094 L 84.84375 48.9375 L 87.535156 47.109375 C 88.636719 46.371094 89.292969 45.140625 89.292969 43.800781 L 89.292969 26.78125 Z M 89.292969 49.5 L 71.402344 61.5625 L 73.296875 62.828125 C 74.605469 63.707031 76.261719 63.707031 77.570312 62.828125 L 84.84375 57.941406 L 87.535156 56.109375 C 88.636719 55.371094 89.292969 54.140625 89.292969 52.804688 Z M 89.292969 49.5 " clip-rule="nonzero"/></clipPath><linearGradient x1="-0.0146488" gradientTransform="matrix(0, -35.168068, 34.473366, 0, 79.570603, 63.004071)" y1="0" x2="1.03" gradientUnits="userSpaceOnUse" y2="0" id="237c6016c9"><stop stop-opacity="1" stop-color="rgb(0%, 55.288696%, 52.159119%)" offset="0"/><stop stop-opacity="1" stop-color="rgb(0.167847%, 55.111694%, 52.285767%)" offset="0.03125"/><stop stop-opacity="1" stop-color="rgb(0.491333%, 54.776001%, 52.526855%)" offset="0.046875"/><stop stop-opacity="1" stop-color="rgb(0.798035%, 54.457092%, 52.757263%)" offset="0.0625"/><stop stop-opacity="1" stop-color="rgb(1.104736%, 54.136658%, 52.987671%)" offset="0.078125"/><stop stop-opacity="1" stop-color="rgb(1.412964%, 53.816223%, 53.218079%)" offset="0.09375"/><stop stop-opacity="1" stop-color="rgb(1.719666%, 53.497314%, 53.448486%)" offset="0.109375"/><stop stop-opacity="1" stop-color="rgb(2.026367%, 53.17688%, 53.678894%)" offset="0.125"/><stop stop-opacity="1" stop-color="rgb(2.334595%, 52.856445%, 53.909302%)" offset="0.140625"/><stop stop-opacity="1" stop-color="rgb(2.641296%, 52.537537%, 54.139709%)" offset="0.15625"/><stop stop-opacity="1" stop-color="rgb(2.947998%, 52.217102%, 54.370117%)" offset="0.171875"/><stop stop-opacity="1" stop-color="rgb(3.256226%, 51.896667%, 54.600525%)" offset="0.1875"/><stop stop-opacity="1" stop-color="rgb(3.562927%, 51.577759%, 54.830933%)" offset="0.203125"/><stop stop-opacity="1" stop-color="rgb(3.869629%, 51.257324%, 55.06134%)" offset="0.21875"/><stop stop-opacity="1" stop-color="rgb(4.177856%, 50.93689%, 55.291748%)" offset="0.234375"/><stop stop-opacity="1" stop-color="rgb(4.484558%, 50.617981%, 55.522156%)" offset="0.25"/><stop stop-opacity="1" stop-color="rgb(4.79126%, 50.297546%, 55.752563%)" offset="0.265625"/><stop stop-opacity="1" stop-color="rgb(5.099487%, 49.977112%, 55.982971%)" offset="0.28125"/><stop stop-opacity="1" stop-color="rgb(5.406189%, 49.658203%, 56.211853%)" offset="0.296875"/><stop stop-opacity="1" stop-color="rgb(5.712891%, 49.337769%, 56.442261%)" offset="0.3125"/><stop stop-opacity="1" stop-color="rgb(6.021118%, 49.017334%, 56.672668%)" offset="0.328125"/><stop stop-opacity="1" stop-color="rgb(6.32782%, 48.698425%, 56.903076%)" offset="0.34375"/><stop stop-opacity="1" stop-color="rgb(6.634521%, 48.377991%, 57.133484%)" offset="0.359375"/><stop stop-opacity="1" stop-color="rgb(6.942749%, 48.057556%, 57.363892%)" offset="0.375"/><stop stop-opacity="1" stop-color="rgb(7.249451%, 47.738647%, 57.594299%)" offset="0.390625"/><stop stop-opacity="1" stop-color="rgb(7.556152%, 47.418213%, 57.824707%)" offset="0.40625"/><stop stop-opacity="1" stop-color="rgb(7.86438%, 47.097778%, 58.055115%)" offset="0.421875"/><stop stop-opacity="1" stop-color="rgb(8.171082%, 46.77887%, 58.285522%)" offset="0.4375"/><stop stop-opacity="1" stop-color="rgb(8.477783%, 46.458435%, 58.51593%)" offset="0.453125"/><stop stop-opacity="1" stop-color="rgb(8.784485%, 46.138%, 58.746338%)" offset="0.46875"/><stop stop-opacity="1" stop-color="rgb(9.092712%, 45.819092%, 58.976746%)" offset="0.484375"/><stop stop-opacity="1" stop-color="rgb(9.399414%, 45.498657%, 59.207153%)" offset="0.5"/><stop stop-opacity="1" stop-color="rgb(9.706116%, 45.178223%, 59.437561%)" offset="0.515625"/><stop stop-opacity="1" stop-color="rgb(10.014343%, 44.859314%, 59.667969%)" offset="0.53125"/><stop stop-opacity="1" stop-color="rgb(10.321045%, 44.538879%, 59.896851%)" offset="0.546875"/><stop stop-opacity="1" stop-color="rgb(10.627747%, 44.218445%, 60.127258%)" offset="0.5625"/><stop stop-opacity="1" stop-color="rgb(10.935974%, 43.899536%, 60.357666%)" offset="0.578125"/><stop stop-opacity="1" stop-color="rgb(11.242676%, 43.579102%, 60.588074%)" offset="0.59375"/><stop stop-opacity="1" stop-color="rgb(11.549377%, 43.258667%, 60.818481%)" offset="0.609375"/><stop stop-opacity="1" stop-color="rgb(11.857605%, 42.939758%, 61.048889%)" offset="0.625"/><stop stop-opacity="1" stop-color="rgb(12.164307%, 42.619324%, 61.279297%)" offset="0.640625"/><stop stop-opacity="1" stop-color="rgb(12.471008%, 42.298889%, 61.509705%)" offset="0.65625"/><stop stop-opacity="1" stop-color="rgb(12.779236%, 41.97998%, 61.740112%)" offset="0.671875"/><stop stop-opacity="1" stop-color="rgb(13.085938%, 41.659546%, 61.97052%)" offset="0.6875"/><stop stop-opacity="1" stop-color="rgb(13.392639%, 41.339111%, 62.200928%)" offset="0.703125"/><stop stop-opacity="1" stop-color="rgb(13.700867%, 41.020203%, 62.431335%)" offset="0.71875"/><stop stop-opacity="1" stop-color="rgb(14.007568%, 40.699768%, 62.661743%)" offset="0.734375"/><stop stop-opacity="1" stop-color="rgb(14.31427%, 40.379333%, 62.892151%)" offset="0.75"/><stop stop-opacity="1" stop-color="rgb(14.622498%, 40.060425%, 63.122559%)" offset="0.765625"/><stop stop-opacity="1" stop-color="rgb(14.929199%, 39.73999%, 63.352966%)" offset="0.78125"/><stop stop-opacity="1" stop-color="rgb(15.235901%, 39.419556%, 63.581848%)" offset="0.796875"/><stop stop-opacity="1" stop-color="rgb(15.544128%, 39.100647%, 63.812256%)" offset="0.8125"/><stop stop-opacity="1" stop-color="rgb(15.85083%, 38.780212%, 64.042664%)" offset="0.828125"/><stop stop-opacity="1" stop-color="rgb(16.157532%, 38.459778%, 64.273071%)" offset="0.84375"/><stop stop-opacity="1" stop-color="rgb(16.464233%, 38.140869%, 64.503479%)" offset="0.859375"/><stop stop-opacity="1" stop-color="rgb(16.772461%, 37.820435%, 64.733887%)" offset="0.875"/><stop stop-opacity="1" stop-color="rgb(17.079163%, 37.5%, 64.964294%)" offset="0.890625"/><stop stop-opacity="1" stop-color="rgb(17.385864%, 37.181091%, 65.194702%)" offset="0.90625"/><stop stop-opacity="1" stop-color="rgb(17.694092%, 36.860657%, 65.42511%)" offset="0.921875"/><stop stop-opacity="1" stop-color="rgb(18.000793%, 36.540222%, 65.655518%)" offset="0.9375"/><stop stop-opacity="1" stop-color="rgb(18.307495%, 36.221313%, 65.885925%)" offset="0.953125"/><stop stop-opacity="1" stop-color="rgb(18.615723%, 35.900879%, 66.116333%)" offset="0.96875"/><stop stop-opacity="1" stop-color="rgb(18.79425%, 35.714722%, 66.25061%)" offset="1"/></linearGradient><clipPath id="040ea376ba"><path d="M 92.402344 26.769531 L 111.902344 26.769531 L 111.902344 63.519531 L 92.402344 63.519531 Z M 92.402344 26.769531 " clip-rule="nonzero"/></clipPath><clipPath id="06ced52844"><path d="M 92.417969 43.816406 C 92.417969 45.132812 93.042969 46.378906 94.125 47.089844 L 96.847656 48.902344 L 111.8125 59.011719 L 111.8125 55.703125 C 111.8125 54.347656 111.183594 53.140625 110.105469 52.390625 L 99.777344 45.453125 C 97.964844 44.207031 96.847656 42.140625 96.847656 39.898438 L 96.5 31.644531 C 96.5 30.328125 95.347656 28.761719 94.265625 28.050781 L 92.417969 26.769531 Z M 92.417969 52.820312 C 92.417969 54.136719 93.042969 55.382812 94.160156 56.128906 L 96.847656 57.941406 L 104.136719 62.820312 C 105.394531 63.707031 107.070312 63.707031 108.359375 62.820312 L 110.277344 61.539062 L 96.847656 52.5 L 92.417969 49.507812 Z M 92.417969 52.820312 " clip-rule="nonzero"/></clipPath><linearGradient x1="-0.00868117" gradientTransform="matrix(0, -35.588039, 34.88504, 0, 102.114907, 63.210294)" y1="0" x2="1.023969" gradientUnits="userSpaceOnUse" y2="0" id="0be5f9f106"><stop stop-opacity="1" stop-color="rgb(9.01947%, 13.328552%, 30.198669%)" offset="0"/><stop stop-opacity="1" stop-color="rgb(9.036255%, 13.394165%, 30.32074%)" offset="0.015625"/><stop stop-opacity="1" stop-color="rgb(9.072876%, 13.531494%, 30.577087%)" offset="0.0234375"/><stop stop-opacity="1" stop-color="rgb(9.111023%, 13.673401%, 30.84259%)" offset="0.03125"/><stop stop-opacity="1" stop-color="rgb(9.14917%, 13.816833%, 31.109619%)" offset="0.0390625"/><stop stop-opacity="1" stop-color="rgb(9.187317%, 13.95874%, 31.375122%)" offset="0.046875"/><stop stop-opacity="1" stop-color="rgb(9.223938%, 14.100647%, 31.640625%)" offset="0.0546875"/><stop stop-opacity="1" stop-color="rgb(9.262085%, 14.24408%, 31.906128%)" offset="0.0625"/><stop stop-opacity="1" stop-color="rgb(9.300232%, 14.385986%, 32.171631%)" offset="0.0703125"/><stop stop-opacity="1" stop-color="rgb(9.338379%, 14.527893%, 32.437134%)" offset="0.078125"/><stop stop-opacity="1" stop-color="rgb(9.376526%, 14.671326%, 32.704163%)" offset="0.0859375"/><stop stop-opacity="1" stop-color="rgb(9.414673%, 14.813232%, 32.969666%)" offset="0.09375"/><stop stop-opacity="1" stop-color="rgb(9.45282%, 14.955139%, 33.235168%)" offset="0.101563"/><stop stop-opacity="1" stop-color="rgb(9.490967%, 15.097046%, 33.500671%)" offset="0.109375"/><stop stop-opacity="1" stop-color="rgb(9.529114%, 15.240479%, 33.766174%)" offset="0.117188"/><stop stop-opacity="1" stop-color="rgb(9.567261%, 15.382385%, 34.031677%)" offset="0.125"/><stop stop-opacity="1" stop-color="rgb(9.603882%, 15.524292%, 34.298706%)" offset="0.132812"/><stop stop-opacity="1" stop-color="rgb(9.642029%, 15.667725%, 34.564209%)" offset="0.140625"/><stop stop-opacity="1" stop-color="rgb(9.680176%, 15.809631%, 34.829712%)" offset="0.148438"/><stop stop-opacity="1" stop-color="rgb(9.718323%, 15.951538%, 35.095215%)" offset="0.15625"/><stop stop-opacity="1" stop-color="rgb(9.75647%, 16.094971%, 35.360718%)" offset="0.164062"/><stop stop-opacity="1" stop-color="rgb(9.794617%, 16.236877%, 35.626221%)" offset="0.171875"/><stop stop-opacity="1" stop-color="rgb(9.832764%, 16.378784%, 35.891724%)" offset="0.179688"/><stop stop-opacity="1" stop-color="rgb(9.870911%, 16.522217%, 36.158752%)" offset="0.1875"/><stop stop-opacity="1" stop-color="rgb(9.909058%, 16.664124%, 36.424255%)" offset="0.195313"/><stop stop-opacity="1" stop-color="rgb(9.947205%, 16.80603%, 36.689758%)" offset="0.203125"/><stop stop-opacity="1" stop-color="rgb(9.985352%, 16.949463%, 36.955261%)" offset="0.210938"/><stop stop-opacity="1" stop-color="rgb(10.021973%, 17.09137%, 37.220764%)" offset="0.21875"/><stop stop-opacity="1" stop-color="rgb(10.06012%, 17.233276%, 37.486267%)" offset="0.226562"/><stop stop-opacity="1" stop-color="rgb(10.098267%, 17.376709%, 37.753296%)" offset="0.234375"/><stop stop-opacity="1" stop-color="rgb(10.136414%, 17.518616%, 38.018799%)" offset="0.242188"/><stop stop-opacity="1" stop-color="rgb(10.174561%, 17.660522%, 38.284302%)" offset="0.25"/><stop stop-opacity="1" stop-color="rgb(10.212708%, 17.803955%, 38.549805%)" offset="0.257812"/><stop stop-opacity="1" stop-color="rgb(10.250854%, 17.945862%, 38.815308%)" offset="0.265625"/><stop stop-opacity="1" stop-color="rgb(10.289001%, 18.087769%, 39.080811%)" offset="0.273438"/><stop stop-opacity="1" stop-color="rgb(10.327148%, 18.231201%, 39.347839%)" offset="0.28125"/><stop stop-opacity="1" stop-color="rgb(10.365295%, 18.373108%, 39.613342%)" offset="0.289062"/><stop stop-opacity="1" stop-color="rgb(10.401917%, 18.515015%, 39.878845%)" offset="0.296875"/><stop stop-opacity="1" stop-color="rgb(10.440063%, 18.656921%, 40.144348%)" offset="0.304687"/><stop stop-opacity="1" stop-color="rgb(10.47821%, 18.800354%, 40.409851%)" offset="0.3125"/><stop stop-opacity="1" stop-color="rgb(10.516357%, 18.942261%, 40.675354%)" offset="0.320312"/><stop stop-opacity="1" stop-color="rgb(10.554504%, 19.084167%, 40.942383%)" offset="0.328125"/><stop stop-opacity="1" stop-color="rgb(10.592651%, 19.2276%, 41.207886%)" offset="0.335938"/><stop stop-opacity="1" stop-color="rgb(10.630798%, 19.369507%, 41.473389%)" offset="0.34375"/><stop stop-opacity="1" stop-color="rgb(10.668945%, 19.511414%, 41.738892%)" offset="0.351563"/><stop stop-opacity="1" stop-color="rgb(10.707092%, 19.654846%, 42.004395%)" offset="0.359375"/><stop stop-opacity="1" stop-color="rgb(10.745239%, 19.796753%, 42.269897%)" offset="0.367188"/><stop stop-opacity="1" stop-color="rgb(10.78186%, 19.93866%, 42.5354%)" offset="0.375"/><stop stop-opacity="1" stop-color="rgb(10.820007%, 20.082092%, 42.802429%)" offset="0.382813"/><stop stop-opacity="1" stop-color="rgb(10.858154%, 20.223999%, 43.067932%)" offset="0.390625"/><stop stop-opacity="1" stop-color="rgb(10.896301%, 20.365906%, 43.333435%)" offset="0.398438"/><stop stop-opacity="1" stop-color="rgb(10.934448%, 20.509338%, 43.598938%)" offset="0.40625"/><stop stop-opacity="1" stop-color="rgb(10.972595%, 20.651245%, 43.864441%)" offset="0.414062"/><stop stop-opacity="1" stop-color="rgb(11.010742%, 20.793152%, 44.129944%)" offset="0.421875"/><stop stop-opacity="1" stop-color="rgb(11.048889%, 20.936584%, 44.396973%)" offset="0.429688"/><stop stop-opacity="1" stop-color="rgb(11.087036%, 21.078491%, 44.662476%)" offset="0.4375"/><stop stop-opacity="1" stop-color="rgb(11.125183%, 21.220398%, 44.927979%)" offset="0.445312"/><stop stop-opacity="1" stop-color="rgb(11.161804%, 21.363831%, 45.193481%)" offset="0.453125"/><stop stop-opacity="1" stop-color="rgb(11.199951%, 21.505737%, 45.458984%)" offset="0.460938"/><stop stop-opacity="1" stop-color="rgb(11.238098%, 21.647644%, 45.724487%)" offset="0.46875"/><stop stop-opacity="1" stop-color="rgb(11.276245%, 21.789551%, 45.991516%)" offset="0.476562"/><stop stop-opacity="1" stop-color="rgb(11.314392%, 21.932983%, 46.257019%)" offset="0.484375"/><stop stop-opacity="1" stop-color="rgb(11.352539%, 22.07489%, 46.522522%)" offset="0.492187"/><stop stop-opacity="1" stop-color="rgb(11.390686%, 22.216797%, 46.788025%)" offset="0.5"/><stop stop-opacity="1" stop-color="rgb(11.428833%, 22.360229%, 47.053528%)" offset="0.507812"/><stop stop-opacity="1" stop-color="rgb(11.46698%, 22.502136%, 47.319031%)" offset="0.515625"/><stop stop-opacity="1" stop-color="rgb(11.505127%, 22.644043%, 47.584534%)" offset="0.523438"/><stop stop-opacity="1" stop-color="rgb(11.543274%, 22.787476%, 47.851562%)" offset="0.53125"/><stop stop-opacity="1" stop-color="rgb(11.579895%, 22.929382%, 48.117065%)" offset="0.539062"/><stop stop-opacity="1" stop-color="rgb(11.618042%, 23.071289%, 48.382568%)" offset="0.546875"/><stop stop-opacity="1" stop-color="rgb(11.656189%, 23.214722%, 48.648071%)" offset="0.554687"/><stop stop-opacity="1" stop-color="rgb(11.694336%, 23.356628%, 48.913574%)" offset="0.5625"/><stop stop-opacity="1" stop-color="rgb(11.732483%, 23.498535%, 49.179077%)" offset="0.570312"/><stop stop-opacity="1" stop-color="rgb(11.77063%, 23.641968%, 49.446106%)" offset="0.578125"/><stop stop-opacity="1" stop-color="rgb(11.808777%, 23.783875%, 49.711609%)" offset="0.585938"/><stop stop-opacity="1" stop-color="rgb(11.846924%, 23.925781%, 49.977112%)" offset="0.59375"/><stop stop-opacity="1" stop-color="rgb(11.885071%, 24.069214%, 50.242615%)" offset="0.601562"/><stop stop-opacity="1" stop-color="rgb(11.923218%, 24.211121%, 50.508118%)" offset="0.609375"/><stop stop-opacity="1" stop-color="rgb(11.959839%, 24.353027%, 50.773621%)" offset="0.617187"/><stop stop-opacity="1" stop-color="rgb(11.997986%, 24.49646%, 51.040649%)" offset="0.625"/><stop stop-opacity="1" stop-color="rgb(12.036133%, 24.638367%, 51.306152%)" offset="0.632812"/><stop stop-opacity="1" stop-color="rgb(12.07428%, 24.780273%, 51.571655%)" offset="0.640625"/><stop stop-opacity="1" stop-color="rgb(12.112427%, 24.92218%, 51.837158%)" offset="0.648438"/><stop stop-opacity="1" stop-color="rgb(12.150574%, 25.065613%, 52.102661%)" offset="0.65625"/><stop stop-opacity="1" stop-color="rgb(12.188721%, 25.20752%, 52.368164%)" offset="0.664062"/><stop stop-opacity="1" stop-color="rgb(12.226868%, 25.349426%, 52.635193%)" offset="0.671875"/><stop stop-opacity="1" stop-color="rgb(12.265015%, 25.492859%, 52.900696%)" offset="0.679688"/><stop stop-opacity="1" stop-color="rgb(12.303162%, 25.634766%, 53.166199%)" offset="0.6875"/><stop stop-opacity="1" stop-color="rgb(12.339783%, 25.776672%, 53.431702%)" offset="0.695312"/><stop stop-opacity="1" stop-color="rgb(12.37793%, 25.920105%, 53.697205%)" offset="0.703125"/><stop stop-opacity="1" stop-color="rgb(12.416077%, 26.062012%, 53.962708%)" offset="0.710938"/><stop stop-opacity="1" stop-color="rgb(12.454224%, 26.203918%, 54.22821%)" offset="0.71875"/><stop stop-opacity="1" stop-color="rgb(12.492371%, 26.347351%, 54.495239%)" offset="0.726562"/><stop stop-opacity="1" stop-color="rgb(12.530518%, 26.489258%, 54.760742%)" offset="0.734375"/><stop stop-opacity="1" stop-color="rgb(12.568665%, 26.631165%, 55.026245%)" offset="0.742188"/><stop stop-opacity="1" stop-color="rgb(12.606812%, 26.774597%, 55.291748%)" offset="0.75"/><stop stop-opacity="1" stop-color="rgb(12.644958%, 26.916504%, 55.557251%)" offset="0.757813"/><stop stop-opacity="1" stop-color="rgb(12.683105%, 27.058411%, 55.822754%)" offset="0.765625"/><stop stop-opacity="1" stop-color="rgb(12.721252%, 27.201843%, 56.089783%)" offset="0.773438"/><stop stop-opacity="1" stop-color="rgb(12.757874%, 27.34375%, 56.355286%)" offset="0.78125"/><stop stop-opacity="1" stop-color="rgb(12.796021%, 27.485657%, 56.620789%)" offset="0.789062"/><stop stop-opacity="1" stop-color="rgb(12.834167%, 27.629089%, 56.886292%)" offset="0.796875"/><stop stop-opacity="1" stop-color="rgb(12.872314%, 27.770996%, 57.151794%)" offset="0.804688"/><stop stop-opacity="1" stop-color="rgb(12.910461%, 27.912903%, 57.417297%)" offset="0.8125"/><stop stop-opacity="1" stop-color="rgb(12.948608%, 28.05481%, 57.684326%)" offset="0.820313"/><stop stop-opacity="1" stop-color="rgb(12.986755%, 28.198242%, 57.949829%)" offset="0.828125"/><stop stop-opacity="1" stop-color="rgb(13.024902%, 28.340149%, 58.215332%)" offset="0.835938"/><stop stop-opacity="1" stop-color="rgb(13.063049%, 28.482056%, 58.480835%)" offset="0.84375"/><stop stop-opacity="1" stop-color="rgb(13.101196%, 28.625488%, 58.746338%)" offset="0.851562"/><stop stop-opacity="1" stop-color="rgb(13.137817%, 28.767395%, 59.011841%)" offset="0.859375"/><stop stop-opacity="1" stop-color="rgb(13.175964%, 28.909302%, 59.277344%)" offset="0.867188"/><stop stop-opacity="1" stop-color="rgb(13.214111%, 29.052734%, 59.544373%)" offset="0.875"/><stop stop-opacity="1" stop-color="rgb(13.252258%, 29.194641%, 59.809875%)" offset="0.882812"/><stop stop-opacity="1" stop-color="rgb(13.290405%, 29.336548%, 60.075378%)" offset="0.890625"/><stop stop-opacity="1" stop-color="rgb(13.328552%, 29.47998%, 60.340881%)" offset="0.898438"/><stop stop-opacity="1" stop-color="rgb(13.366699%, 29.621887%, 60.606384%)" offset="0.90625"/><stop stop-opacity="1" stop-color="rgb(13.404846%, 29.763794%, 60.871887%)" offset="0.914063"/><stop stop-opacity="1" stop-color="rgb(13.442993%, 29.907227%, 61.138916%)" offset="0.921875"/><stop stop-opacity="1" stop-color="rgb(13.48114%, 30.049133%, 61.404419%)" offset="0.929687"/><stop stop-opacity="1" stop-color="rgb(13.517761%, 30.19104%, 61.669922%)" offset="0.9375"/><stop stop-opacity="1" stop-color="rgb(13.555908%, 30.334473%, 61.935425%)" offset="0.945312"/><stop stop-opacity="1" stop-color="rgb(13.594055%, 30.476379%, 62.200928%)" offset="0.953125"/><stop stop-opacity="1" stop-color="rgb(13.632202%, 30.618286%, 62.466431%)" offset="0.960938"/><stop stop-opacity="1" stop-color="rgb(13.670349%, 30.761719%, 62.733459%)" offset="0.96875"/><stop stop-opacity="1" stop-color="rgb(13.710022%, 30.906677%, 63.002014%)" offset="1"/></linearGradient><clipPath id="c7eb28eb2b"><path d="M 119.347656 34.003906 L 122.71875 34.003906 L 122.71875 48.675781 L 119.347656 48.675781 Z M 119.347656 34.003906 " clip-rule="nonzero"/></clipPath><clipPath id="b88da8238d"><path d="M 0.347656 0.00390625 L 3.71875 0.00390625 L 3.71875 14.675781 L 0.347656 14.675781 Z M 0.347656 0.00390625 " clip-rule="nonzero"/></clipPath><clipPath id="54bf034540"><rect x="0" width="4" y="0" height="15"/></clipPath><clipPath id="894b32b229"><path d="M 126.273438 34.003906 L 145.949219 34.003906 L 145.949219 48.644531 L 126.273438 48.644531 Z M 126.273438 34.003906 " clip-rule="nonzero"/></clipPath><clipPath id="b50a8759c9"><path d="M 142.566406 34.003906 L 145.90625 34.003906 L 145.90625 48.644531 L 142.753906 48.644531 L 129.597656 38.53125 L 129.597656 48.644531 L 126.273438 48.644531 L 126.273438 34.003906 L 129.40625 34.003906 L 142.566406 44.097656 Z M 142.566406 34.003906 " clip-rule="nonzero"/></clipPath><clipPath id="87f0104559"><path d="M 0.273438 0.00390625 L 19.921875 0.00390625 L 19.921875 14.644531 L 0.273438 14.644531 Z M 0.273438 0.00390625 " clip-rule="nonzero"/></clipPath><clipPath id="93159962dc"><path d="M 16.566406 0.00390625 L 19.90625 0.00390625 L 19.90625 14.644531 L 16.753906 14.644531 L 3.597656 4.53125 L 3.597656 14.644531 L 0.273438 14.644531 L 0.273438 0.00390625 L 3.40625 0.00390625 L 16.566406 10.097656 Z M 16.566406 0.00390625 " clip-rule="nonzero"/></clipPath><clipPath id="ace66c037d"><rect x="0" width="20" y="0" height="15"/></clipPath><clipPath id="0b13414a1e"><path d="M 148.304688 34.003906 L 166.644531 34.003906 L 166.644531 37.109375 L 148.304688 37.109375 Z M 155.785156 37.109375 L 159.164062 37.109375 L 159.164062 48.625 L 155.785156 48.625 Z M 155.785156 37.109375 " clip-rule="nonzero"/></clipPath><clipPath id="84e2f8f09b"><path d="M 0.304688 0.00390625 L 18.644531 0.00390625 L 18.644531 3.109375 L 0.304688 3.109375 Z M 7.785156 3.109375 L 11.164062 3.109375 L 11.164062 14.625 L 7.785156 14.625 Z M 7.785156 3.109375 " clip-rule="nonzero"/></clipPath><clipPath id="84c8efec16"><rect x="0" width="19" y="0" height="15"/></clipPath><clipPath id="c94f5866ff"><path d="M 169.105469 34.003906 L 186.355469 34.003906 L 186.355469 49 L 169.105469 49 Z M 169.105469 34.003906 " clip-rule="nonzero"/></clipPath><clipPath id="2ddb3d9693"><path d="M 173.84375 39.90625 L 184.847656 39.90625 L 184.847656 42.730469 L 173.84375 42.730469 Z M 173.84375 39.90625 " clip-rule="nonzero"/></clipPath><clipPath id="9a841037f8"><path d="M 0.84375 0.90625 L 11.847656 0.90625 L 11.847656 3.730469 L 0.84375 3.730469 Z M 0.84375 0.90625 " clip-rule="nonzero"/></clipPath><clipPath id="8af830ade5"><rect x="0" width="12" y="0" height="4"/></clipPath><clipPath id="98d4ba8a6d"><path d="M 188.214844 33.898438 L 208.074219 33.898438 L 208.074219 48.820312 L 188.214844 48.820312 Z M 188.214844 33.898438 " clip-rule="nonzero"/></clipPath><clipPath id="949b5715b4"><path d="M 206.121094 38.097656 C 205.171875 37.171875 203.863281 36.917969 202.109375 36.917969 L 196.261719 36.917969 C 193.21875 36.917969 191.507812 38.5625 191.507812 41.308594 L 191.507812 41.328125 C 191.53125 44.117188 193.238281 45.742188 196.261719 45.742188 L 202.109375 45.742188 C 203.925781 45.742188 205.191406 45.449219 206.121094 44.539062 L 208.0625 46.925781 C 206.628906 48.257812 204.832031 48.761719 202.109375 48.761719 L 196.261719 48.761719 C 191.171875 48.761719 188.214844 45.953125 188.214844 41.328125 L 188.214844 41.308594 C 188.214844 36.707031 191.171875 33.898438 196.261719 33.898438 L 202.109375 33.898438 C 204.75 33.898438 206.605469 34.363281 208.0625 35.734375 Z M 206.121094 38.097656 " clip-rule="nonzero"/></clipPath><clipPath id="f0e8b40585"><path d="M 0.214844 0.898438 L 20.074219 0.898438 L 20.074219 15.820312 L 0.214844 15.820312 Z M 0.214844 0.898438 " clip-rule="nonzero"/></clipPath><clipPath id="2a732c39c7"><path d="M 18.121094 5.097656 C 17.171875 4.171875 15.863281 3.917969 14.109375 3.917969 L 8.261719 3.917969 C 5.21875 3.917969 3.507812 5.5625 3.507812 8.308594 L 3.507812 8.328125 C 3.53125 11.117188 5.238281 12.742188 8.261719 12.742188 L 14.109375 12.742188 C 15.925781 12.742188 17.191406 12.449219 18.121094 11.539062 L 20.0625 13.925781 C 18.628906 15.257812 16.832031 15.761719 14.109375 15.761719 L 8.261719 15.761719 C 3.171875 15.761719 0.214844 12.953125 0.214844 8.328125 L 0.214844 8.308594 C 0.214844 3.707031 3.171875 0.898438 8.261719 0.898438 L 14.109375 0.898438 C 16.75 0.898438 18.605469 1.363281 20.0625 2.734375 Z M 18.121094 5.097656 " clip-rule="nonzero"/></clipPath><clipPath id="ea46c772c1"><rect x="0" width="21" y="0" height="16"/></clipPath><clipPath id="10d0ea1da4"><path d="M 226.753906 34.003906 L 230.140625 34.003906 L 230.140625 39.84375 L 226.753906 39.84375 Z M 210.398438 34.003906 L 213.765625 34.003906 L 213.765625 39.84375 L 210.398438 39.84375 Z M 210.398438 39.84375 L 230.140625 39.84375 L 230.140625 42.847656 L 210.398438 42.847656 Z M 210.398438 42.847656 L 213.765625 42.847656 L 213.765625 48.648438 L 210.398438 48.648438 Z M 226.753906 42.847656 L 230.140625 42.847656 L 230.140625 48.648438 L 226.753906 48.648438 Z M 226.753906 42.847656 " clip-rule="nonzero"/></clipPath><clipPath id="97a9c69d3d"><path d="M 16.753906 0.00390625 L 20.140625 0.00390625 L 20.140625 5.84375 L 16.753906 5.84375 Z M 0.398438 0.00390625 L 3.765625 0.00390625 L 3.765625 5.84375 L 0.398438 5.84375 Z M 0.398438 5.84375 L 20.140625 5.84375 L 20.140625 8.847656 L 0.398438 8.847656 Z M 0.398438 8.847656 L 3.765625 8.847656 L 3.765625 14.648438 L 0.398438 14.648438 Z M 16.753906 8.847656 L 20.140625 8.847656 L 20.140625 14.648438 L 16.753906 14.648438 Z M 16.753906 8.847656 " clip-rule="nonzero"/></clipPath><clipPath id="994122153a"><rect x="0" width="21" y="0" height="15"/></clipPath><clipPath id="1db2c25e6a"><path d="M 153.242188 54.832031 L 154.742188 54.832031 L 154.742188 56.332031 L 153.242188 56.332031 Z M 153.242188 54.832031 " clip-rule="nonzero"/></clipPath><clipPath id="bd0d197e02"><path d="M 196.035156 54.832031 L 197.535156 54.832031 L 197.535156 56.332031 L 196.035156 56.332031 Z M 196.035156 54.832031 " clip-rule="nonzero"/></clipPath><clipPath id="c243c7a79c"><path d="M 119.390625 53.910156 L 119.695312 53.910156 L 119.695312 57.472656 L 119.390625 57.472656 Z M 119.390625 53.910156 " clip-rule="nonzero"/></clipPath><clipPath id="dd66277200"><path d="M 0.390625 0.910156 L 0.695312 0.910156 L 0.695312 4.472656 L 0.390625 4.472656 Z M 0.390625 0.910156 " clip-rule="nonzero"/></clipPath><clipPath id="d773e3a45e"><rect x="0" width="1" y="0" height="5"/></clipPath><clipPath id="21d3752e1c"><path d="M 121.582031 53.898438 L 124.445312 53.898438 L 124.445312 57.480469 L 121.582031 57.480469 Z M 121.582031 53.898438 " clip-rule="nonzero"/></clipPath><clipPath id="419b1b10a3"><path d="M 124.136719 57.472656 L 121.894531 54.398438 L 121.894531 57.472656 L 121.589844 57.472656 L 121.589844 53.910156 L 121.902344 53.910156 L 124.132812 56.941406 L 124.132812 53.910156 L 124.4375 53.910156 L 124.4375 57.472656 Z M 124.136719 57.472656 " clip-rule="nonzero"/></clipPath><clipPath id="a8ba682fc2"><path d="M 0.582031 0.898438 L 3.445312 0.898438 L 3.445312 4.480469 L 0.582031 4.480469 Z M 0.582031 0.898438 " clip-rule="nonzero"/></clipPath><clipPath id="3e04b9498d"><path d="M 3.136719 4.472656 L 0.894531 1.398438 L 0.894531 4.472656 L 0.589844 4.472656 L 0.589844 0.910156 L 0.902344 0.910156 L 3.132812 3.941406 L 3.132812 0.910156 L 3.4375 0.910156 L 3.4375 4.472656 Z M 3.136719 4.472656 " clip-rule="nonzero"/></clipPath><clipPath id="369d6730eb"><rect x="0" width="4" y="0" height="5"/></clipPath><clipPath id="3ad1e3076e"><path d="M 126.390625 53.910156 L 129.390625 53.910156 L 129.390625 57.660156 L 126.390625 57.660156 Z M 126.390625 53.910156 " clip-rule="nonzero"/></clipPath><clipPath id="78f8eeb7e2"><path d="M 131.074219 53.890625 L 133.890625 53.890625 L 133.890625 57.558594 L 131.074219 57.558594 Z M 131.074219 53.890625 " clip-rule="nonzero"/></clipPath><clipPath id="fd814d04d8"><path d="M 131.085938 53.890625 L 131.398438 53.890625 L 131.398438 56.101562 C 131.398438 56.828125 131.78125 57.269531 132.488281 57.269531 C 133.199219 57.269531 133.574219 56.828125 133.574219 56.101562 L 133.574219 53.890625 L 133.890625 53.890625 L 133.890625 56.105469 C 133.890625 56.996094 133.414062 57.550781 132.488281 57.550781 C 131.566406 57.550781 131.085938 56.988281 131.085938 56.105469 Z M 131.085938 53.890625 " clip-rule="nonzero"/></clipPath><clipPath id="26ba981f4b"><path d="M 0.0742188 0.890625 L 2.890625 0.890625 L 2.890625 4.558594 L 0.0742188 4.558594 Z M 0.0742188 0.890625 " clip-rule="nonzero"/></clipPath><clipPath id="01a6372a73"><path d="M 0.0859375 0.890625 L 0.398438 0.890625 L 0.398438 3.101562 C 0.398438 3.828125 0.78125 4.269531 1.488281 4.269531 C 2.199219 4.269531 2.574219 3.828125 2.574219 3.101562 L 2.574219 0.890625 L 2.890625 0.890625 L 2.890625 3.105469 C 2.890625 3.996094 2.414062 4.550781 1.488281 4.550781 C 0.566406 4.550781 0.0859375 3.988281 0.0859375 3.105469 Z M 0.0859375 0.890625 " clip-rule="nonzero"/></clipPath><clipPath id="9c1af61777"><rect x="0" width="3" y="0" height="5"/></clipPath><clipPath id="0472544d9c"><path d="M 135.570312 53.859375 L 138.136719 53.859375 L 138.136719 57.535156 L 135.570312 57.535156 Z M 135.570312 53.859375 " clip-rule="nonzero"/></clipPath><clipPath id="6b10db7ea0"><path d="M 135.777344 56.734375 C 136.003906 57 136.375 57.25 136.882812 57.25 C 137.609375 57.25 137.816406 56.847656 137.816406 56.542969 C 137.816406 56.042969 137.34375 55.90625 136.84375 55.773438 C 136.285156 55.621094 135.691406 55.460938 135.691406 54.804688 C 135.691406 54.226562 136.210938 53.859375 136.855469 53.859375 C 137.386719 53.859375 137.78125 54.046875 138.054688 54.359375 L 137.855469 54.582031 C 137.597656 54.273438 137.238281 54.136719 136.839844 54.136719 C 136.367188 54.136719 136.011719 54.40625 136.011719 54.789062 C 136.011719 55.210938 136.449219 55.332031 136.933594 55.460938 C 137.507812 55.625 138.136719 55.804688 138.136719 56.523438 C 138.136719 56.980469 137.832031 57.527344 136.875 57.527344 C 136.292969 57.527344 135.851562 57.292969 135.578125 56.964844 Z M 135.777344 56.734375 " clip-rule="nonzero"/></clipPath><clipPath id="b8a98d16ea"><path d="M 0.570312 0.859375 L 3.136719 0.859375 L 3.136719 4.535156 L 0.570312 4.535156 Z M 0.570312 0.859375 " clip-rule="nonzero"/></clipPath><clipPath id="925064dca4"><path d="M 0.777344 3.734375 C 1.003906 4 1.375 4.25 1.882812 4.25 C 2.609375 4.25 2.816406 3.847656 2.816406 3.542969 C 2.816406 3.042969 2.34375 2.90625 1.84375 2.773438 C 1.285156 2.621094 0.691406 2.460938 0.691406 1.804688 C 0.691406 1.226562 1.210938 0.859375 1.855469 0.859375 C 2.386719 0.859375 2.78125 1.046875 3.054688 1.359375 L 2.855469 1.582031 C 2.597656 1.273438 2.238281 1.136719 1.839844 1.136719 C 1.367188 1.136719 1.011719 1.40625 1.011719 1.789062 C 1.011719 2.210938 1.449219 2.332031 1.933594 2.460938 C 2.507812 2.625 3.136719 2.804688 3.136719 3.523438 C 3.136719 3.980469 2.832031 4.527344 1.875 4.527344 C 1.292969 4.527344 0.851562 4.292969 0.578125 3.964844 Z M 0.777344 3.734375 " clip-rule="nonzero"/></clipPath><clipPath id="29d5c36ffe"><rect x="0" width="4" y="0" height="5"/></clipPath><clipPath id="5145fa74ae"><path d="M 139.617188 53.910156 L 142.253906 53.910156 L 142.253906 54.1875 L 139.617188 54.1875 Z M 140.78125 54.1875 L 141.089844 54.1875 L 141.089844 57.472656 L 140.78125 57.472656 Z M 140.78125 54.1875 " clip-rule="nonzero"/></clipPath><clipPath id="28763ebace"><path d="M 0.617188 0.910156 L 3.253906 0.910156 L 3.253906 1.1875 L 0.617188 1.1875 Z M 1.78125 1.1875 L 2.089844 1.1875 L 2.089844 4.472656 L 1.78125 4.472656 Z M 1.78125 1.1875 " clip-rule="nonzero"/></clipPath><clipPath id="fae2204e28"><rect x="0" width="4" y="0" height="5"/></clipPath><clipPath id="ed128d844f"><path d="M 143.929688 53.910156 L 146.179688 53.910156 L 146.179688 57.660156 L 143.929688 57.660156 Z M 143.929688 53.910156 " clip-rule="nonzero"/></clipPath><clipPath id="5686b6e887"><path d="M 147.707031 53.898438 L 150.847656 53.898438 L 150.847656 57.46875 L 147.707031 57.46875 Z M 147.707031 53.898438 " clip-rule="nonzero"/></clipPath><clipPath id="a5f369c507"><path d="M 149.117188 57.460938 L 149.117188 55.945312 L 147.707031 53.910156 L 148.074219 53.910156 L 149.269531 55.65625 L 150.46875 53.910156 L 150.835938 53.910156 L 149.425781 55.945312 L 149.425781 57.460938 Z M 149.117188 57.460938 " clip-rule="nonzero"/></clipPath><clipPath id="2e28a41b2c"><path d="M 0.707031 0.898438 L 3.847656 0.898438 L 3.847656 4.46875 L 0.707031 4.46875 Z M 0.707031 0.898438 " clip-rule="nonzero"/></clipPath><clipPath id="c4cb383cdc"><path d="M 2.117188 4.460938 L 2.117188 2.945312 L 0.707031 0.910156 L 1.074219 0.910156 L 2.269531 2.65625 L 3.46875 0.910156 L 3.835938 0.910156 L 2.425781 2.945312 L 2.425781 4.460938 Z M 2.117188 4.460938 " clip-rule="nonzero"/></clipPath><clipPath id="3ad1dd6a72"><rect x="0" width="4" y="0" height="5"/></clipPath><clipPath id="95e73ceff4"><path d="M 157.640625 53.910156 L 159.898438 53.910156 L 159.898438 54.1875 L 157.640625 54.1875 Z M 157.640625 54.1875 L 157.945312 54.1875 L 157.945312 55.507812 L 157.640625 55.507812 Z M 157.640625 55.507812 L 159.863281 55.507812 L 159.863281 55.785156 L 157.640625 55.785156 Z M 157.640625 55.785156 L 157.945312 55.785156 L 157.945312 57.195312 L 157.640625 57.195312 Z M 157.640625 57.195312 L 159.898438 57.195312 L 159.898438 57.472656 L 157.640625 57.472656 Z M 157.640625 57.195312 " clip-rule="nonzero"/></clipPath><clipPath id="f2110fd8f6"><path d="M 0.640625 0.910156 L 2.898438 0.910156 L 2.898438 1.1875 L 0.640625 1.1875 Z M 0.640625 1.1875 L 0.945312 1.1875 L 0.945312 2.507812 L 0.640625 2.507812 Z M 0.640625 2.507812 L 2.863281 2.507812 L 2.863281 2.785156 L 0.640625 2.785156 Z M 0.640625 2.785156 L 0.945312 2.785156 L 0.945312 4.195312 L 0.640625 4.195312 Z M 0.640625 4.195312 L 2.898438 4.195312 L 2.898438 4.472656 L 0.640625 4.472656 Z M 0.640625 4.195312 " clip-rule="nonzero"/></clipPath><clipPath id="39c54b0110"><rect x="0" width="3" y="0" height="5"/></clipPath><clipPath id="e929101829"><path d="M 161.695312 53.910156 L 164.695312 53.910156 L 164.695312 57.660156 L 161.695312 57.660156 Z M 161.695312 53.910156 " clip-rule="nonzero"/></clipPath><clipPath id="5851e33a87"><path d="M 166.386719 53.890625 L 169.191406 53.890625 L 169.191406 57.558594 L 166.386719 57.558594 Z M 166.386719 53.890625 " clip-rule="nonzero"/></clipPath><clipPath id="5e1813a4d2"><path d="M 166.386719 53.890625 L 166.699219 53.890625 L 166.699219 56.101562 C 166.699219 56.828125 167.085938 57.269531 167.789062 57.269531 C 168.503906 57.269531 168.878906 56.828125 168.878906 56.101562 L 168.878906 53.890625 L 169.191406 53.890625 L 169.191406 56.105469 C 169.191406 56.996094 168.71875 57.550781 167.789062 57.550781 C 166.867188 57.550781 166.386719 56.988281 166.386719 56.105469 Z M 166.386719 53.890625 " clip-rule="nonzero"/></clipPath><clipPath id="0408d2dd38"><path d="M 0.386719 0.890625 L 3.191406 0.890625 L 3.191406 4.558594 L 0.386719 4.558594 Z M 0.386719 0.890625 " clip-rule="nonzero"/></clipPath><clipPath id="24e9d26e88"><path d="M 0.386719 0.890625 L 0.699219 0.890625 L 0.699219 3.101562 C 0.699219 3.828125 1.085938 4.269531 1.789062 4.269531 C 2.503906 4.269531 2.878906 3.828125 2.878906 3.101562 L 2.878906 0.890625 L 3.191406 0.890625 L 3.191406 3.105469 C 3.191406 3.996094 2.71875 4.550781 1.789062 4.550781 C 0.867188 4.550781 0.386719 3.988281 0.386719 3.105469 Z M 0.386719 0.890625 " clip-rule="nonzero"/></clipPath><clipPath id="ebdb127749"><rect x="0" width="4" y="0" height="5"/></clipPath><clipPath id="195e48d5a2"><path d="M 170.929688 53.859375 L 174.03125 53.859375 L 174.03125 57.539062 L 170.929688 57.539062 Z M 170.929688 53.859375 " clip-rule="nonzero"/></clipPath><clipPath id="5601f6e902"><path d="M 170.941406 55.695312 C 170.941406 54.605469 171.734375 53.859375 172.726562 53.859375 C 173.300781 53.859375 173.726562 54.109375 174.03125 54.488281 L 173.773438 54.652344 C 173.550781 54.34375 173.164062 54.136719 172.726562 54.136719 C 171.902344 54.136719 171.261719 54.769531 171.261719 55.695312 C 171.261719 56.609375 171.902344 57.25 172.726562 57.25 C 173.164062 57.25 173.550781 57.042969 173.773438 56.734375 L 174.03125 56.894531 C 173.714844 57.285156 173.300781 57.527344 172.726562 57.527344 C 171.734375 57.527344 170.941406 56.785156 170.941406 55.695312 Z M 170.941406 55.695312 " clip-rule="nonzero"/></clipPath><clipPath id="49fb4ca0f8"><path d="M 0.929688 0.859375 L 4.03125 0.859375 L 4.03125 4.539062 L 0.929688 4.539062 Z M 0.929688 0.859375 " clip-rule="nonzero"/></clipPath><clipPath id="8292c5468b"><path d="M 0.941406 2.695312 C 0.941406 1.605469 1.734375 0.859375 2.726562 0.859375 C 3.300781 0.859375 3.726562 1.109375 4.03125 1.488281 L 3.773438 1.652344 C 3.550781 1.34375 3.164062 1.136719 2.726562 1.136719 C 1.902344 1.136719 1.261719 1.769531 1.261719 2.695312 C 1.261719 3.609375 1.902344 4.25 2.726562 4.25 C 3.164062 4.25 3.550781 4.042969 3.773438 3.734375 L 4.03125 3.894531 C 3.714844 4.285156 3.300781 4.527344 2.726562 4.527344 C 1.734375 4.527344 0.941406 3.785156 0.941406 2.695312 Z M 0.941406 2.695312 " clip-rule="nonzero"/></clipPath><clipPath id="2f2377f829"><rect x="0" width="5" y="0" height="5"/></clipPath><clipPath id="1dc6a780cc"><path d="M 175.304688 53.910156 L 178.304688 53.910156 L 178.304688 57.660156 L 175.304688 57.660156 Z M 175.304688 53.910156 " clip-rule="nonzero"/></clipPath><clipPath id="a0a815fc49"><path d="M 179.523438 53.910156 L 182.160156 53.910156 L 182.160156 54.1875 L 179.523438 54.1875 Z M 180.6875 54.1875 L 180.996094 54.1875 L 180.996094 57.472656 L 180.6875 57.472656 Z M 180.6875 54.1875 " clip-rule="nonzero"/></clipPath><clipPath id="7a36b5fb77"><path d="M 0.523438 0.910156 L 3.160156 0.910156 L 3.160156 1.1875 L 0.523438 1.1875 Z M 1.6875 1.1875 L 1.996094 1.1875 L 1.996094 4.472656 L 1.6875 4.472656 Z M 1.6875 1.1875 " clip-rule="nonzero"/></clipPath><clipPath id="16db28cda8"><rect x="0" width="4" y="0" height="5"/></clipPath><clipPath id="fac671750e"><path d="M 183.847656 53.910156 L 184.152344 53.910156 L 184.152344 57.472656 L 183.847656 57.472656 Z M 183.847656 53.910156 " clip-rule="nonzero"/></clipPath><clipPath id="c9a1d1fdfc"><path d="M 0.847656 0.910156 L 1.152344 0.910156 L 1.152344 4.472656 L 0.847656 4.472656 Z M 0.847656 0.910156 " clip-rule="nonzero"/></clipPath><clipPath id="a2b1cb7f07"><rect x="0" width="2" y="0" height="5"/></clipPath><clipPath id="5ed189d0c9"><path d="M 185.953125 53.859375 L 189.703125 53.859375 L 189.703125 57.609375 L 185.953125 57.609375 Z M 185.953125 53.859375 " clip-rule="nonzero"/></clipPath><clipPath id="0811360477"><path d="M 191.148438 53.898438 L 194 53.898438 L 194 57.476562 L 191.148438 57.476562 Z M 191.148438 53.898438 " clip-rule="nonzero"/></clipPath><clipPath id="db6e60d00f"><path d="M 193.695312 57.472656 L 191.453125 54.398438 L 191.453125 57.472656 L 191.148438 57.472656 L 191.148438 53.910156 L 191.457031 53.910156 L 193.6875 56.941406 L 193.6875 53.910156 L 193.992188 53.910156 L 193.992188 57.472656 Z M 193.695312 57.472656 " clip-rule="nonzero"/></clipPath><clipPath id="cd26758597"><path d="M 0.148438 0.898438 L 3 0.898438 L 3 4.476562 L 0.148438 4.476562 Z M 0.148438 0.898438 " clip-rule="nonzero"/></clipPath><clipPath id="a838b78ce7"><path d="M 2.695312 4.472656 L 0.453125 1.398438 L 0.453125 4.472656 L 0.148438 4.472656 L 0.148438 0.910156 L 0.457031 0.910156 L 2.6875 3.941406 L 2.6875 0.910156 L 2.992188 0.910156 L 2.992188 4.472656 Z M 2.695312 4.472656 " clip-rule="nonzero"/></clipPath><clipPath id="7eae1fd60f"><rect x="0" width="3" y="0" height="5"/></clipPath><clipPath id="a74a1d2471"><path d="M 200.421875 53.898438 L 203.765625 53.898438 L 203.765625 57.476562 L 200.421875 57.476562 Z M 200.421875 53.898438 " clip-rule="nonzero"/></clipPath><clipPath id="f4e69da04c"><path d="M 203.457031 57.472656 L 203.457031 54.3125 L 202.160156 57.472656 L 202.042969 57.472656 L 200.742188 54.3125 L 200.742188 57.472656 L 200.4375 57.472656 L 200.4375 53.910156 L 200.890625 53.910156 L 202.101562 56.863281 L 203.308594 53.910156 L 203.765625 53.910156 L 203.765625 57.472656 Z M 203.457031 57.472656 " clip-rule="nonzero"/></clipPath><clipPath id="be69cd3d90"><path d="M 0.421875 0.898438 L 3.765625 0.898438 L 3.765625 4.476562 L 0.421875 4.476562 Z M 0.421875 0.898438 " clip-rule="nonzero"/></clipPath><clipPath id="142145ab1b"><path d="M 3.457031 4.472656 L 3.457031 1.3125 L 2.160156 4.472656 L 2.042969 4.472656 L 0.742188 1.3125 L 0.742188 4.472656 L 0.4375 4.472656 L 0.4375 0.910156 L 0.890625 0.910156 L 2.101562 3.863281 L 3.308594 0.910156 L 3.765625 0.910156 L 3.765625 4.472656 Z M 3.457031 4.472656 " clip-rule="nonzero"/></clipPath><clipPath id="a72f2e1c15"><rect x="0" width="4" y="0" height="5"/></clipPath><clipPath id="6865044248"><path d="M 205.550781 53.859375 L 209.300781 53.859375 L 209.300781 57.609375 L 205.550781 57.609375 Z M 205.550781 53.859375 " clip-rule="nonzero"/></clipPath><clipPath id="0a48f92988"><path d="M 210.746094 53.910156 L 212.996094 53.910156 L 212.996094 57.660156 L 210.746094 57.660156 Z M 210.746094 53.910156 " clip-rule="nonzero"/></clipPath><clipPath id="17580376f0"><path d="M 215.089844 53.910156 L 215.394531 53.910156 L 215.394531 57.472656 L 215.089844 57.472656 Z M 215.089844 53.910156 " clip-rule="nonzero"/></clipPath><clipPath id="143b252844"><path d="M 0.0898438 0.910156 L 0.394531 0.910156 L 0.394531 4.472656 L 0.0898438 4.472656 Z M 0.0898438 0.910156 " clip-rule="nonzero"/></clipPath><clipPath id="7019498bbb"><rect x="0" width="1" y="0" height="5"/></clipPath><clipPath id="5b6a507c6d"><path d="M 217.316406 53.910156 L 217.621094 53.910156 L 217.621094 57.195312 L 217.316406 57.195312 Z M 217.316406 57.195312 L 219.34375 57.195312 L 219.34375 57.472656 L 217.316406 57.472656 Z M 217.316406 57.195312 " clip-rule="nonzero"/></clipPath><clipPath id="f5846d45fe"><path d="M 0.316406 0.910156 L 0.621094 0.910156 L 0.621094 4.195312 L 0.316406 4.195312 Z M 0.316406 4.195312 L 2.34375 4.195312 L 2.34375 4.472656 L 0.316406 4.472656 Z M 0.316406 4.195312 " clip-rule="nonzero"/></clipPath><clipPath id="c4ffe20a1f"><rect x="0" width="3" y="0" height="5"/></clipPath><clipPath id="9547518dec"><path d="M 221.050781 53.910156 L 221.355469 53.910156 L 221.355469 57.472656 L 221.050781 57.472656 Z M 221.050781 53.910156 " clip-rule="nonzero"/></clipPath><clipPath id="aefcd9e492"><path d="M 0.0507812 0.910156 L 0.355469 0.910156 L 0.355469 4.472656 L 0.0507812 4.472656 Z M 0.0507812 0.910156 " clip-rule="nonzero"/></clipPath><clipPath id="53358a9837"><rect x="0" width="1" y="0" height="5"/></clipPath><clipPath id="19a32c144c"><path d="M 223.003906 53.910156 L 225.640625 53.910156 L 225.640625 54.1875 L 223.003906 54.1875 Z M 224.164062 54.1875 L 224.476562 54.1875 L 224.476562 57.472656 L 224.164062 57.472656 Z M 224.164062 54.1875 " clip-rule="nonzero"/></clipPath><clipPath id="5cb2bf866d"><path d="M 0.00390625 0.910156 L 2.640625 0.910156 L 2.640625 1.1875 L 0.00390625 1.1875 Z M 1.164062 1.1875 L 1.476562 1.1875 L 1.476562 4.472656 L 1.164062 4.472656 Z M 1.164062 1.1875 " clip-rule="nonzero"/></clipPath><clipPath id="adbc3ae3a8"><rect x="0" width="3" y="0" height="5"/></clipPath><clipPath id="b5189e25f4"><path d="M 226.96875 53.898438 L 230.109375 53.898438 L 230.109375 57.46875 L 226.96875 57.46875 Z M 226.96875 53.898438 " clip-rule="nonzero"/></clipPath><clipPath id="acc2bf6e6f"><path d="M 228.378906 57.460938 L 228.378906 55.945312 L 226.96875 53.910156 L 227.335938 53.910156 L 228.535156 55.65625 L 229.730469 53.910156 L 230.097656 53.910156 L 228.6875 55.945312 L 228.6875 57.460938 Z M 228.378906 57.460938 " clip-rule="nonzero"/></clipPath><clipPath id="f7bb1e4a98"><path d="M 0.96875 0.898438 L 4.109375 0.898438 L 4.109375 4.46875 L 0.96875 4.46875 Z M 0.96875 0.898438 " clip-rule="nonzero"/></clipPath><clipPath id="2c989453f1"><path d="M 2.378906 4.460938 L 2.378906 2.945312 L 0.96875 0.910156 L 1.335938 0.910156 L 2.535156 2.65625 L 3.730469 0.910156 L 4.097656 0.910156 L 2.6875 2.945312 L 2.6875 4.460938 Z M 2.378906 4.460938 " clip-rule="nonzero"/></clipPath><clipPath id="f3d69cabde"><rect x="0" width="5" y="0" height="5"/></clipPath></defs><g clip-path="url(#e92f2efcc1)"><g clip-path="url(#d223b3b54b)"><path fill="url(#237c6016c9)" d="M 69.859375 63.519531 L 89.292969 63.519531 L 89.292969 26.78125 L 69.859375 26.78125 Z M 69.859375 63.519531 " fill-rule="nonzero"/></g></g><g clip-path="url(#040ea376ba)"><g clip-path="url(#06ced52844)"><path fill="url(#0be5f9f106)" d="M 92.417969 63.519531 L 111.8125 63.519531 L 111.8125 26.769531 L 92.417969 26.769531 Z M 92.417969 63.519531 " fill-rule="nonzero"/></g></g><g clip-path="url(#c7eb28eb2b)"><g transform="matrix(1, 0, 0, 1, 119, 34)"><g clip-path="url(#54bf034540)"><g clip-path="url(#b88da8238d)"><path fill="#193355" d="M 0.347656 0.00390625 L 3.71875 0.00390625 L 3.71875 14.671875 L 0.347656 14.671875 Z M 0.347656 0.00390625 " fill-opacity="1" fill-rule="nonzero"/></g></g></g></g><g clip-path="url(#894b32b229)"><g clip-path="url(#b50a8759c9)"><g transform="matrix(1, 0, 0, 1, 126, 34)"><g clip-path="url(#ace66c037d)"><g clip-path="url(#87f0104559)"><g clip-path="url(#93159962dc)"><path fill="#193355" d="M 0.273438 0.00390625 L 19.890625 0.00390625 L 19.890625 14.644531 L 0.273438 14.644531 Z M 0.273438 0.00390625 " fill-opacity="1" fill-rule="nonzero"/></g></g></g></g></g></g><g clip-path="url(#0b13414a1e)"><g transform="matrix(1, 0, 0, 1, 148, 34)"><g clip-path="url(#84c8efec16)"><g clip-path="url(#84e2f8f09b)"><path fill="#193355" d="M 0.304688 0.00390625 L 18.636719 0.00390625 L 18.636719 14.625 L 0.304688 14.625 Z M 0.304688 0.00390625 " fill-opacity="1" fill-rule="nonzero"/></g></g></g></g><g clip-path="url(#c94f5866ff)"><path fill="#193355" d="M 172.410156 45.925781 L 172.410156 40.03125 L 169.109375 40.03125 L 169.109375 48.898438 L 186.335938 48.898438 L 186.335938 45.925781 Z M 169.109375 36.953125 L 186.335938 36.953125 L 186.335938 34.003906 L 169.109375 34.003906 Z M 169.109375 36.953125 " fill-opacity="1" fill-rule="nonzero"/></g><g clip-path="url(#2ddb3d9693)"><g transform="matrix(1, 0, 0, 1, 173, 39)"><g clip-path="url(#8af830ade5)"><g clip-path="url(#9a841037f8)"><path fill="#43a5a2" d="M 0.84375 0.90625 L 11.851562 0.90625 L 11.851562 3.730469 L 0.84375 3.730469 Z M 0.84375 0.90625 " fill-opacity="1" fill-rule="nonzero"/></g></g></g></g><g clip-path="url(#98d4ba8a6d)"><g clip-path="url(#949b5715b4)"><g transform="matrix(1, 0, 0, 1, 188, 33)"><g clip-path="url(#ea46c772c1)"><g clip-path="url(#f0e8b40585)"><g clip-path="url(#2a732c39c7)"><path fill="#193355" d="M 0.214844 0.898438 L 20.074219 0.898438 L 20.074219 15.761719 L 0.214844 15.761719 Z M 0.214844 0.898438 " fill-opacity="1" fill-rule="nonzero"/></g></g></g></g></g></g><g clip-path="url(#10d0ea1da4)"><g transform="matrix(1, 0, 0, 1, 210, 34)"><g clip-path="url(#994122153a)"><g clip-path="url(#97a9c69d3d)"><path fill="#193355" d="M 0.398438 0.00390625 L 20.132812 0.00390625 L 20.132812 14.648438 L 0.398438 14.648438 Z M 0.398438 0.00390625 " fill-opacity="1" fill-rule="nonzero"/></g></g></g></g><g clip-path="url(#1db2c25e6a)"><path fill="#41a4a6" d="M 153.242188 55.550781 C 153.242188 55.949219 153.5625 56.269531 153.960938 56.269531 C 154.355469 56.269531 154.679688 55.949219 154.679688 55.550781 C 154.679688 55.152344 154.355469 54.832031 153.960938 54.832031 C 153.5625 54.832031 153.242188 55.152344 153.242188 55.550781 " fill-opacity="1" fill-rule="nonzero"/></g><g clip-path="url(#bd0d197e02)"><path fill="#43a5a2" d="M 196.035156 55.550781 C 196.035156 55.949219 196.355469 56.269531 196.753906 56.269531 C 197.148438 56.269531 197.472656 55.949219 197.472656 55.550781 C 197.472656 55.152344 197.148438 54.832031 196.753906 54.832031 C 196.355469 54.832031 196.035156 55.152344 196.035156 55.550781 " fill-opacity="1" fill-rule="nonzero"/></g><g clip-path="url(#c243c7a79c)"><g transform="matrix(1, 0, 0, 1, 119, 53)"><g clip-path="url(#d773e3a45e)"><g clip-path="url(#dd66277200)"><path fill="#576a7b" d="M 0.390625 0.910156 L 0.695312 0.910156 L 0.695312 4.472656 L 0.390625 4.472656 Z M 0.390625 0.910156 " fill-opacity="1" fill-rule="nonzero"/></g></g></g></g><g clip-path="url(#21d3752e1c)"><g clip-path="url(#419b1b10a3)"><g transform="matrix(1, 0, 0, 1, 121, 53)"><g clip-path="url(#369d6730eb)"><g clip-path="url(#a8ba682fc2)"><g clip-path="url(#3e04b9498d)"><path fill="#576a7b" d="M 0.589844 0.910156 L 3.4375 0.910156 L 3.4375 4.46875 L 0.589844 4.46875 Z M 0.589844 0.910156 " fill-opacity="1" fill-rule="nonzero"/></g></g></g></g></g></g><g clip-path="url(#3ad1e3076e)"><path fill="#576a7b" d="M 126.703125 57.335938 L 127.550781 57.335938 C 128.511719 57.335938 129.058594 56.640625 129.058594 55.773438 C 129.058594 54.902344 128.515625 54.203125 127.550781 54.203125 L 126.703125 54.203125 Z M 126.390625 57.628906 L 126.390625 53.910156 L 127.550781 53.910156 C 128.679688 53.910156 129.386719 54.753906 129.386719 55.773438 C 129.386719 56.800781 128.679688 57.628906 127.550781 57.628906 Z M 126.390625 57.628906 " fill-opacity="1" fill-rule="nonzero"/></g><g clip-path="url(#78f8eeb7e2)"><g clip-path="url(#fd814d04d8)"><g transform="matrix(1, 0, 0, 1, 131, 53)"><g clip-path="url(#9c1af61777)"><g clip-path="url(#26ba981f4b)"><g clip-path="url(#01a6372a73)"><path fill="#576a7b" d="M 0.0859375 0.890625 L 2.890625 0.890625 L 2.890625 4.546875 L 0.0859375 4.546875 Z M 0.0859375 0.890625 " fill-opacity="1" fill-rule="nonzero"/></g></g></g></g></g></g><g clip-path="url(#0472544d9c)"><g clip-path="url(#6b10db7ea0)"><g transform="matrix(1, 0, 0, 1, 135, 53)"><g clip-path="url(#29d5c36ffe)"><g clip-path="url(#b8a98d16ea)"><g clip-path="url(#925064dca4)"><path fill="#576a7b" d="M 0.578125 0.859375 L 3.136719 0.859375 L 3.136719 4.523438 L 0.578125 4.523438 Z M 0.578125 0.859375 " fill-opacity="1" fill-rule="nonzero"/></g></g></g></g></g></g><g clip-path="url(#5145fa74ae)"><g transform="matrix(1, 0, 0, 1, 139, 53)"><g clip-path="url(#fae2204e28)"><g clip-path="url(#28763ebace)"><path fill="#576a7b" d="M 0.617188 0.910156 L 3.253906 0.910156 L 3.253906 4.476562 L 0.617188 4.476562 Z M 0.617188 0.910156 " fill-opacity="1" fill-rule="nonzero"/></g></g></g></g><g clip-path="url(#ed128d844f)"><path fill="#576a7b" d="M 145.101562 54.203125 L 144.203125 54.203125 L 144.203125 55.800781 L 145.101562 55.800781 C 145.523438 55.800781 145.808594 55.464844 145.808594 55 C 145.808594 54.53125 145.523438 54.203125 145.101562 54.203125 M 145.804688 57.625 L 144.910156 56.089844 L 144.203125 56.089844 L 144.203125 57.625 L 143.929688 57.625 L 143.929688 53.914062 L 145.125 53.914062 C 145.675781 53.914062 146.097656 54.320312 146.097656 55 C 146.097656 55.671875 145.683594 56.042969 145.210938 56.066406 L 146.136719 57.625 Z M 145.804688 57.625 " fill-opacity="1" fill-rule="nonzero"/></g><g clip-path="url(#5686b6e887)"><g clip-path="url(#a5f369c507)"><g transform="matrix(1, 0, 0, 1, 147, 53)"><g clip-path="url(#3ad1dd6a72)"><g clip-path="url(#2e28a41b2c)"><g clip-path="url(#c4cb383cdc)"><path fill="#576a7b" d="M 0.707031 0.910156 L 3.835938 0.910156 L 3.835938 4.457031 L 0.707031 4.457031 Z M 0.707031 0.910156 " fill-opacity="1" fill-rule="nonzero"/></g></g></g></g></g></g><g clip-path="url(#95e73ceff4)"><g transform="matrix(1, 0, 0, 1, 157, 53)"><g clip-path="url(#39c54b0110)"><g clip-path="url(#f2110fd8f6)"><path fill="#576a7b" d="M 0.640625 0.910156 L 2.898438 0.910156 L 2.898438 4.472656 L 0.640625 4.472656 Z M 0.640625 0.910156 " fill-opacity="1" fill-rule="nonzero"/></g></g></g></g><g clip-path="url(#e929101829)"><path fill="#576a7b" d="M 162.007812 57.335938 L 162.855469 57.335938 C 163.8125 57.335938 164.363281 56.640625 164.363281 55.773438 C 164.363281 54.902344 163.820312 54.203125 162.855469 54.203125 L 162.007812 54.203125 Z M 161.695312 57.628906 L 161.695312 53.910156 L 162.855469 53.910156 C 163.984375 53.910156 164.691406 54.753906 164.691406 55.773438 C 164.691406 56.800781 163.984375 57.628906 162.855469 57.628906 Z M 161.695312 57.628906 " fill-opacity="1" fill-rule="nonzero"/></g><g clip-path="url(#5851e33a87)"><g clip-path="url(#5e1813a4d2)"><g transform="matrix(1, 0, 0, 1, 166, 53)"><g clip-path="url(#ebdb127749)"><g clip-path="url(#0408d2dd38)"><g clip-path="url(#24e9d26e88)"><path fill="#576a7b" d="M 0.386719 0.890625 L 3.191406 0.890625 L 3.191406 4.546875 L 0.386719 4.546875 Z M 0.386719 0.890625 " fill-opacity="1" fill-rule="nonzero"/></g></g></g></g></g></g><g clip-path="url(#195e48d5a2)"><g clip-path="url(#5601f6e902)"><g transform="matrix(1, 0, 0, 1, 170, 53)"><g clip-path="url(#2f2377f829)"><g clip-path="url(#49fb4ca0f8)"><g clip-path="url(#8292c5468b)"><path fill="#576a7b" d="M 0.941406 0.859375 L 4.03125 0.859375 L 4.03125 4.527344 L 0.941406 4.527344 Z M 0.941406 0.859375 " fill-opacity="1" fill-rule="nonzero"/></g></g></g></g></g></g><g clip-path="url(#1dc6a780cc)"><path fill="#576a7b" d="M 176.765625 54.222656 L 176.011719 56.421875 L 177.523438 56.421875 Z M 177.925781 57.625 L 177.609375 56.714844 L 175.925781 56.714844 L 175.609375 57.625 L 175.304688 57.625 L 176.597656 53.910156 L 176.933594 53.910156 L 178.226562 57.625 Z M 177.925781 57.625 " fill-opacity="1" fill-rule="nonzero"/></g><g clip-path="url(#a0a815fc49)"><g transform="matrix(1, 0, 0, 1, 179, 53)"><g clip-path="url(#16db28cda8)"><g clip-path="url(#7a36b5fb77)"><path fill="#576a7b" d="M 0.523438 0.910156 L 3.160156 0.910156 L 3.160156 4.476562 L 0.523438 4.476562 Z M 0.523438 0.910156 " fill-opacity="1" fill-rule="nonzero"/></g></g></g></g><g clip-path="url(#fac671750e)"><g transform="matrix(1, 0, 0, 1, 183, 53)"><g clip-path="url(#a2b1cb7f07)"><g clip-path="url(#c9a1d1fdfc)"><path fill="#576a7b" d="M 0.847656 0.910156 L 1.152344 0.910156 L 1.152344 4.472656 L 0.847656 4.472656 Z M 0.847656 0.910156 " fill-opacity="1" fill-rule="nonzero"/></g></g></g></g><g clip-path="url(#5ed189d0c9)"><path fill="#576a7b" d="M 187.8125 54.140625 C 186.882812 54.140625 186.300781 54.804688 186.300781 55.726562 C 186.300781 56.632812 186.882812 57.308594 187.8125 57.308594 C 188.730469 57.308594 189.328125 56.632812 189.328125 55.726562 C 189.328125 54.804688 188.730469 54.140625 187.8125 54.140625 M 187.8125 53.859375 C 188.933594 53.859375 189.671875 54.671875 189.671875 55.726562 C 189.671875 56.78125 188.933594 57.589844 187.8125 57.589844 C 186.6875 57.589844 185.953125 56.78125 185.953125 55.726562 C 185.953125 54.671875 186.6875 53.859375 187.8125 53.859375 " fill-opacity="1" fill-rule="nonzero"/></g><g clip-path="url(#0811360477)"><g clip-path="url(#db6e60d00f)"><g transform="matrix(1, 0, 0, 1, 191, 53)"><g clip-path="url(#7eae1fd60f)"><g clip-path="url(#cd26758597)"><g clip-path="url(#a838b78ce7)"><path fill="#576a7b" d="M 0.148438 0.910156 L 2.992188 0.910156 L 2.992188 4.46875 L 0.148438 4.46875 Z M 0.148438 0.910156 " fill-opacity="1" fill-rule="nonzero"/></g></g></g></g></g></g><g clip-path="url(#a74a1d2471)"><g clip-path="url(#f4e69da04c)"><g transform="matrix(1, 0, 0, 1, 200, 53)"><g clip-path="url(#a72f2e1c15)"><g clip-path="url(#be69cd3d90)"><g clip-path="url(#142145ab1b)"><path fill="#576a7b" d="M 0.4375 0.910156 L 3.765625 0.910156 L 3.765625 4.476562 L 0.4375 4.476562 Z M 0.4375 0.910156 " fill-opacity="1" fill-rule="nonzero"/></g></g></g></g></g></g><g clip-path="url(#6865044248)"><path fill="#576a7b" d="M 207.410156 54.140625 C 206.480469 54.140625 205.898438 54.804688 205.898438 55.726562 C 205.898438 56.632812 206.480469 57.308594 207.410156 57.308594 C 208.328125 57.308594 208.925781 56.632812 208.925781 55.726562 C 208.925781 54.804688 208.328125 54.140625 207.410156 54.140625 M 207.410156 53.859375 C 208.53125 53.859375 209.269531 54.671875 209.269531 55.726562 C 209.269531 56.78125 208.53125 57.589844 207.410156 57.589844 C 206.285156 57.589844 205.550781 56.78125 205.550781 55.726562 C 205.550781 54.671875 206.285156 53.859375 207.410156 53.859375 " fill-opacity="1" fill-rule="nonzero"/></g><g clip-path="url(#0a48f92988)"><path fill="#576a7b" d="M 211.007812 57.335938 L 211.992188 57.335938 C 212.394531 57.335938 212.632812 57.050781 212.632812 56.601562 C 212.632812 56.222656 212.417969 55.867188 211.992188 55.867188 L 211.007812 55.867188 Z M 211.007812 55.578125 L 211.972656 55.578125 C 212.367188 55.578125 212.574219 55.277344 212.574219 54.894531 C 212.574219 54.515625 212.367188 54.203125 211.972656 54.203125 L 211.007812 54.203125 Z M 210.746094 57.625 L 210.746094 53.914062 L 212.003906 53.914062 C 212.519531 53.914062 212.851562 54.277344 212.851562 54.859375 C 212.851562 55.328125 212.589844 55.644531 212.3125 55.710938 C 212.636719 55.773438 212.910156 56.183594 212.910156 56.621094 C 212.910156 57.242188 212.578125 57.625 212.03125 57.625 Z M 210.746094 57.625 " fill-opacity="1" fill-rule="nonzero"/></g><g clip-path="url(#17580376f0)"><g transform="matrix(1, 0, 0, 1, 215, 53)"><g clip-path="url(#7019498bbb)"><g clip-path="url(#143b252844)"><path fill="#576a7b" d="M 0.0898438 0.910156 L 0.394531 0.910156 L 0.394531 4.472656 L 0.0898438 4.472656 Z M 0.0898438 0.910156 " fill-opacity="1" fill-rule="nonzero"/></g></g></g></g><g clip-path="url(#5b6a507c6d)"><g transform="matrix(1, 0, 0, 1, 217, 53)"><g clip-path="url(#c4ffe20a1f)"><g clip-path="url(#f5846d45fe)"><path fill="#576a7b" d="M 0.316406 0.910156 L 2.34375 0.910156 L 2.34375 4.46875 L 0.316406 4.46875 Z M 0.316406 0.910156 " fill-opacity="1" fill-rule="nonzero"/></g></g></g></g><g clip-path="url(#9547518dec)"><g transform="matrix(1, 0, 0, 1, 221, 53)"><g clip-path="url(#53358a9837)"><g clip-path="url(#aefcd9e492)"><path fill="#576a7b" d="M 0.0507812 0.910156 L 0.355469 0.910156 L 0.355469 4.472656 L 0.0507812 4.472656 Z M 0.0507812 0.910156 " fill-opacity="1" fill-rule="nonzero"/></g></g></g></g><g clip-path="url(#19a32c144c)"><g transform="matrix(1, 0, 0, 1, 223, 53)"><g clip-path="url(#adbc3ae3a8)"><g clip-path="url(#5cb2bf866d)"><path fill="#576a7b" d="M 0.00390625 0.910156 L 2.640625 0.910156 L 2.640625 4.476562 L 0.00390625 4.476562 Z M 0.00390625 0.910156 " fill-opacity="1" fill-rule="nonzero"/></g></g></g></g><g clip-path="url(#b5189e25f4)"><g clip-path="url(#acc2bf6e6f)"><g transform="matrix(1, 0, 0, 1, 226, 53)"><g clip-path="url(#f3d69cabde)"><g clip-path="url(#f7bb1e4a98)"><g clip-path="url(#2c989453f1)"><path fill="#576a7b" d="M 0.96875 0.910156 L 4.097656 0.910156 L 4.097656 4.457031 L 0.96875 4.457031 Z M 0.96875 0.910156 " fill-opacity="1" fill-rule="nonzero"/></g></g></g></g></g></g></svg>