<svg xmlns="http://www.w3.org/2000/svg" xmlns:xlink="http://www.w3.org/1999/xlink" zoomAndPan="magnify" preserveAspectRatio="xMidYMid meet" version="1.0" viewBox="94.16 36.73 111.55 25.49"><defs><clipPath id="e211eb4a0a"><path d="M 94.15625 36.726562 L 107.65625 36.726562 L 107.65625 62.226562 L 94.15625 62.226562 Z M 94.15625 36.726562 " clip-rule="nonzero"/></clipPath><clipPath id="aac0e602a9"><path d="M 109.851562 36.726562 L 123.351562 36.726562 L 123.351562 62.226562 L 109.851562 62.226562 Z M 109.851562 36.726562 " clip-rule="nonzero"/></clipPath><clipPath id="8b3af03b44"><path d="M 128.617188 41.78125 L 130.953125 41.78125 L 130.953125 51.941406 L 128.617188 51.941406 Z M 128.617188 41.78125 " clip-rule="nonzero"/></clipPath><clipPath id="8b0c6bbc37"><path d="M 0.617188 0.78125 L 2.953125 0.78125 L 2.953125 10.941406 L 0.617188 10.941406 Z M 0.617188 0.78125 " clip-rule="nonzero"/></clipPath><clipPath id="b55a8c639b"><rect x="0" width="3" y="0" height="11"/></clipPath><clipPath id="de75868cb7"><path d="M 133.410156 41.78125 L 147.074219 41.78125 L 147.074219 51.929688 L 133.410156 51.929688 Z M 133.410156 41.78125 " clip-rule="nonzero"/></clipPath><clipPath id="6ebd66b140"><path d="M 144.738281 41.78125 L 147.054688 41.78125 L 147.054688 51.929688 L 144.871094 51.929688 L 135.75 44.917969 L 135.75 51.929688 L 133.449219 51.929688 L 133.449219 41.78125 L 135.617188 41.78125 L 144.738281 48.773438 Z M 144.738281 41.78125 " clip-rule="nonzero"/></clipPath><clipPath id="ac8c0dddc4"><path d="M 0.441406 0.78125 L 14.074219 0.78125 L 14.074219 10.929688 L 0.441406 10.929688 Z M 0.441406 0.78125 " clip-rule="nonzero"/></clipPath><clipPath id="e178b526f1"><path d="M 11.738281 0.78125 L 14.054688 0.78125 L 14.054688 10.929688 L 11.871094 10.929688 L 2.75 3.917969 L 2.75 10.929688 L 0.449219 10.929688 L 0.449219 0.78125 L 2.617188 0.78125 L 11.738281 7.773438 Z M 11.738281 0.78125 " clip-rule="nonzero"/></clipPath><clipPath id="7f63de0b04"><rect x="0" width="15" y="0" height="11"/></clipPath><clipPath id="9634c3a98e"><path d="M 148.769531 41.78125 L 161.507812 41.78125 L 161.507812 43.9375 L 148.769531 43.9375 Z M 153.964844 43.9375 L 156.3125 43.9375 L 156.3125 51.933594 L 153.964844 51.933594 Z M 153.964844 43.9375 " clip-rule="nonzero"/></clipPath><clipPath id="418bafeabb"><path d="M 0.769531 0.78125 L 13.507812 0.78125 L 13.507812 2.9375 L 0.769531 2.9375 Z M 5.964844 2.9375 L 8.3125 2.9375 L 8.3125 10.933594 L 5.964844 10.933594 Z M 5.964844 2.9375 " clip-rule="nonzero"/></clipPath><clipPath id="3e1e292174"><rect x="0" width="14" y="0" height="11"/></clipPath><clipPath id="06fdbf1c5d"><path d="M 163.234375 41.78125 L 175.234375 41.78125 L 175.234375 52.28125 L 163.234375 52.28125 Z M 163.234375 41.78125 " clip-rule="nonzero"/></clipPath><clipPath id="72afbc0a88"><path d="M 166.535156 45.878906 L 174.191406 45.878906 L 174.191406 47.84375 L 166.535156 47.84375 Z M 166.535156 45.878906 " clip-rule="nonzero"/></clipPath><clipPath id="d4d1312935"><path d="M 0.535156 0.878906 L 8.191406 0.878906 L 8.191406 2.84375 L 0.535156 2.84375 Z M 0.535156 0.878906 " clip-rule="nonzero"/></clipPath><clipPath id="0203de4501"><rect x="0" width="9" y="0" height="3"/></clipPath><clipPath id="065ba0d19d"><path d="M 176.515625 41.652344 L 190.359375 41.652344 L 190.359375 52.015625 L 176.515625 52.015625 Z M 176.515625 41.652344 " clip-rule="nonzero"/></clipPath><clipPath id="b55d3a498e"><path d="M 188.992188 44.609375 C 188.332031 43.964844 187.421875 43.789062 186.207031 43.789062 L 182.140625 43.789062 C 180.03125 43.789062 178.839844 44.933594 178.839844 46.839844 L 178.839844 46.855469 C 178.855469 48.789062 180.042969 49.917969 182.140625 49.917969 L 186.207031 49.917969 C 187.46875 49.917969 188.347656 49.714844 188.992188 49.082031 L 190.34375 50.742188 C 189.34375 51.664062 188.097656 52.015625 186.207031 52.015625 L 182.140625 52.015625 C 178.605469 52.015625 176.554688 50.066406 176.554688 46.855469 L 176.554688 46.839844 C 176.554688 43.640625 178.605469 41.691406 182.140625 41.691406 L 186.207031 41.691406 C 188.039062 41.691406 189.328125 42.011719 190.34375 42.964844 Z M 188.992188 44.609375 " clip-rule="nonzero"/></clipPath><clipPath id="20dc6fece5"><path d="M 0.515625 0.652344 L 14.359375 0.652344 L 14.359375 11.015625 L 0.515625 11.015625 Z M 0.515625 0.652344 " clip-rule="nonzero"/></clipPath><clipPath id="884302055b"><path d="M 12.992188 3.609375 C 12.332031 2.964844 11.421875 2.789062 10.207031 2.789062 L 6.140625 2.789062 C 4.03125 2.789062 2.839844 3.933594 2.839844 5.839844 L 2.839844 5.855469 C 2.855469 7.789062 4.042969 8.917969 6.140625 8.917969 L 10.207031 8.917969 C 11.46875 8.917969 12.347656 8.714844 12.992188 8.082031 L 14.34375 9.742188 C 13.34375 10.664062 12.097656 11.015625 10.207031 11.015625 L 6.140625 11.015625 C 2.605469 11.015625 0.554688 9.066406 0.554688 5.855469 L 0.554688 5.839844 C 0.554688 2.640625 2.605469 0.691406 6.140625 0.691406 L 10.207031 0.691406 C 12.039062 0.691406 13.328125 1.011719 14.34375 1.964844 Z M 12.992188 3.609375 " clip-rule="nonzero"/></clipPath><clipPath id="6a00f0361e"><rect x="0" width="15" y="0" height="12"/></clipPath><clipPath id="d8cc09615c"><path d="M 203.347656 41.78125 L 205.695312 41.78125 L 205.695312 45.828125 L 203.347656 45.828125 Z M 192.015625 41.78125 L 194.347656 41.78125 L 194.347656 45.828125 L 192.015625 45.828125 Z M 192.015625 45.828125 L 205.695312 45.828125 L 205.695312 47.910156 L 192.015625 47.910156 Z M 192.015625 47.910156 L 194.347656 47.910156 L 194.347656 51.925781 L 192.015625 51.925781 Z M 203.347656 47.910156 L 205.695312 47.910156 L 205.695312 51.925781 L 203.347656 51.925781 Z M 203.347656 47.910156 " clip-rule="nonzero"/></clipPath><clipPath id="82eef21fd9"><path d="M 11.347656 0.78125 L 13.695312 0.78125 L 13.695312 4.828125 L 11.347656 4.828125 Z M 0.015625 0.78125 L 2.347656 0.78125 L 2.347656 4.828125 L 0.015625 4.828125 Z M 0.015625 4.828125 L 13.695312 4.828125 L 13.695312 6.910156 L 0.015625 6.910156 Z M 0.015625 6.910156 L 2.347656 6.910156 L 2.347656 10.925781 L 0.015625 10.925781 Z M 11.347656 6.910156 L 13.695312 6.910156 L 13.695312 10.925781 L 11.347656 10.925781 Z M 11.347656 6.910156 " clip-rule="nonzero"/></clipPath><clipPath id="0bdd0e66a9"><rect x="0" width="14" y="0" height="11"/></clipPath><clipPath id="b977a1ef94"><path d="M 128.628906 55.617188 L 128.839844 55.617188 L 128.839844 58.085938 L 128.628906 58.085938 Z M 128.628906 55.617188 " clip-rule="nonzero"/></clipPath><clipPath id="4d88ce0aba"><path d="M 0.628906 0.617188 L 0.839844 0.617188 L 0.839844 3.085938 L 0.628906 3.085938 Z M 0.628906 0.617188 " clip-rule="nonzero"/></clipPath><clipPath id="f7bcee3e7f"><rect x="0" width="1" y="0" height="4"/></clipPath><clipPath id="5d80467d5c"><path d="M 130.164062 55.609375 L 132.144531 55.609375 L 132.144531 58.089844 L 130.164062 58.089844 Z M 130.164062 55.609375 " clip-rule="nonzero"/></clipPath><clipPath id="fee2c64efa"><path d="M 131.9375 58.085938 L 130.382812 55.953125 L 130.382812 58.085938 L 130.171875 58.085938 L 130.171875 55.617188 L 130.386719 55.617188 L 131.933594 57.71875 L 131.933594 55.617188 L 132.144531 55.617188 L 132.144531 58.085938 Z M 131.9375 58.085938 " clip-rule="nonzero"/></clipPath><clipPath id="73bbdc4987"><path d="M 0.164062 0.609375 L 2.144531 0.609375 L 2.144531 3.089844 L 0.164062 3.089844 Z M 0.164062 0.609375 " clip-rule="nonzero"/></clipPath><clipPath id="c3fbe033eb"><path d="M 1.9375 3.085938 L 0.382812 0.953125 L 0.382812 3.085938 L 0.171875 3.085938 L 0.171875 0.617188 L 0.386719 0.617188 L 1.933594 2.71875 L 1.933594 0.617188 L 2.144531 0.617188 L 2.144531 3.085938 Z M 1.9375 3.085938 " clip-rule="nonzero"/></clipPath><clipPath id="bb839f6651"><rect x="0" width="3" y="0" height="4"/></clipPath><clipPath id="d8bce84f08"><path d="M 133.496094 55.617188 L 135.746094 55.617188 L 135.746094 57.867188 L 133.496094 57.867188 Z M 133.496094 55.617188 " clip-rule="nonzero"/></clipPath><clipPath id="2c5396b0bb"><path d="M 136.773438 55.621094 L 138.699219 55.621094 L 138.699219 58.132812 L 136.773438 58.132812 Z M 136.773438 55.621094 " clip-rule="nonzero"/></clipPath><clipPath id="02e1d244f7"><path d="M 136.78125 55.621094 L 136.996094 55.621094 L 136.996094 57.132812 C 136.996094 57.632812 137.257812 57.933594 137.738281 57.933594 C 138.226562 57.933594 138.484375 57.632812 138.484375 57.132812 L 138.484375 55.621094 L 138.699219 55.621094 L 138.699219 57.136719 C 138.699219 57.746094 138.375 58.125 137.738281 58.125 C 137.109375 58.125 136.78125 57.742188 136.78125 57.136719 Z M 136.78125 55.621094 " clip-rule="nonzero"/></clipPath><clipPath id="a3f9e70a8d"><path d="M 0.773438 0.621094 L 2.699219 0.621094 L 2.699219 3.132812 L 0.773438 3.132812 Z M 0.773438 0.621094 " clip-rule="nonzero"/></clipPath><clipPath id="dd47ab60c2"><path d="M 0.78125 0.621094 L 0.996094 0.621094 L 0.996094 2.132812 C 0.996094 2.632812 1.257812 2.933594 1.738281 2.933594 C 2.226562 2.933594 2.484375 2.632812 2.484375 2.132812 L 2.484375 0.621094 L 2.699219 0.621094 L 2.699219 2.136719 C 2.699219 2.746094 2.375 3.125 1.738281 3.125 C 1.109375 3.125 0.78125 2.742188 0.78125 2.136719 Z M 0.78125 0.621094 " clip-rule="nonzero"/></clipPath><clipPath id="81163d9012"><rect x="0" width="3" y="0" height="4"/></clipPath><clipPath id="8ed22feec5"><path d="M 139.902344 55.582031 L 141.679688 55.582031 L 141.679688 58.128906 L 139.902344 58.128906 Z M 139.902344 55.582031 " clip-rule="nonzero"/></clipPath><clipPath id="7e728459e6"><path d="M 140.042969 57.574219 C 140.203125 57.757812 140.460938 57.933594 140.808594 57.933594 C 141.3125 57.933594 141.457031 57.652344 141.457031 57.441406 C 141.457031 57.097656 141.128906 57 140.785156 56.910156 C 140.398438 56.800781 139.984375 56.691406 139.984375 56.238281 C 139.984375 55.835938 140.34375 55.582031 140.789062 55.582031 C 141.160156 55.582031 141.429688 55.710938 141.621094 55.929688 L 141.484375 56.085938 C 141.304688 55.871094 141.054688 55.773438 140.78125 55.773438 C 140.453125 55.773438 140.207031 55.960938 140.207031 56.226562 C 140.207031 56.519531 140.511719 56.601562 140.847656 56.691406 C 141.242188 56.804688 141.679688 56.929688 141.679688 57.425781 C 141.679688 57.746094 141.46875 58.125 140.804688 58.125 C 140.402344 58.125 140.09375 57.960938 139.90625 57.734375 Z M 140.042969 57.574219 " clip-rule="nonzero"/></clipPath><clipPath id="16f99eaa9d"><path d="M 0.902344 0.582031 L 2.679688 0.582031 L 2.679688 3.128906 L 0.902344 3.128906 Z M 0.902344 0.582031 " clip-rule="nonzero"/></clipPath><clipPath id="55decc965f"><path d="M 1.042969 2.574219 C 1.203125 2.757812 1.460938 2.933594 1.808594 2.933594 C 2.3125 2.933594 2.457031 2.652344 2.457031 2.441406 C 2.457031 2.097656 2.128906 2 1.785156 1.910156 C 1.398438 1.800781 0.984375 1.691406 0.984375 1.238281 C 0.984375 0.835938 1.34375 0.582031 1.789062 0.582031 C 2.160156 0.582031 2.429688 0.710938 2.621094 0.929688 L 2.484375 1.085938 C 2.304688 0.871094 2.054688 0.773438 1.78125 0.773438 C 1.453125 0.773438 1.207031 0.960938 1.207031 1.226562 C 1.207031 1.519531 1.511719 1.601562 1.847656 1.691406 C 2.242188 1.804688 2.679688 1.929688 2.679688 2.425781 C 2.679688 2.746094 2.46875 3.125 1.804688 3.125 C 1.402344 3.125 1.09375 2.960938 0.90625 2.734375 Z M 1.042969 2.574219 " clip-rule="nonzero"/></clipPath><clipPath id="fdee77dc62"><rect x="0" width="3" y="0" height="4"/></clipPath><clipPath id="c600b86b2f"><path d="M 142.71875 55.617188 L 144.546875 55.617188 L 144.546875 55.808594 L 142.71875 55.808594 Z M 143.527344 55.808594 L 143.742188 55.808594 L 143.742188 58.085938 L 143.527344 58.085938 Z M 143.527344 55.808594 " clip-rule="nonzero"/></clipPath><clipPath id="2f5cd8f4fb"><path d="M 0.71875 0.617188 L 2.546875 0.617188 L 2.546875 0.808594 L 0.71875 0.808594 Z M 1.527344 0.808594 L 1.742188 0.808594 L 1.742188 3.085938 L 1.527344 3.085938 Z M 1.527344 0.808594 " clip-rule="nonzero"/></clipPath><clipPath id="3a932080e6"><rect x="0" width="3" y="0" height="4"/></clipPath><clipPath id="3505837d69"><path d="M 145.71875 55.617188 L 147.21875 55.617188 L 147.21875 57.867188 L 145.71875 57.867188 Z M 145.71875 55.617188 " clip-rule="nonzero"/></clipPath><clipPath id="7e3e4ca64a"><path d="M 148.335938 55.609375 L 150.519531 55.609375 L 150.519531 58.089844 L 148.335938 58.089844 Z M 148.335938 55.609375 " clip-rule="nonzero"/></clipPath><clipPath id="b60942b645"><path d="M 149.316406 58.085938 L 149.316406 57.03125 L 148.335938 55.617188 L 148.59375 55.617188 L 149.425781 56.832031 L 150.257812 55.617188 L 150.511719 55.617188 L 149.53125 57.03125 L 149.53125 58.085938 Z M 149.316406 58.085938 " clip-rule="nonzero"/></clipPath><clipPath id="43c60dc89b"><path d="M 0.335938 0.609375 L 2.519531 0.609375 L 2.519531 3.089844 L 0.335938 3.089844 Z M 0.335938 0.609375 " clip-rule="nonzero"/></clipPath><clipPath id="3433044c46"><path d="M 1.316406 3.085938 L 1.316406 2.03125 L 0.335938 0.617188 L 0.59375 0.617188 L 1.425781 1.832031 L 2.257812 0.617188 L 2.511719 0.617188 L 1.53125 2.03125 L 1.53125 3.085938 Z M 1.316406 3.085938 " clip-rule="nonzero"/></clipPath><clipPath id="3e8ba1f784"><rect x="0" width="3" y="0" height="4"/></clipPath><clipPath id="d7711ea135"><path d="M 155.261719 55.617188 L 156.824219 55.617188 L 156.824219 55.808594 L 155.261719 55.808594 Z M 155.261719 55.808594 L 155.472656 55.808594 L 155.472656 56.722656 L 155.261719 56.722656 Z M 155.261719 56.722656 L 156.796875 56.722656 L 156.796875 56.914062 L 155.261719 56.914062 Z M 155.261719 56.914062 L 155.472656 56.914062 L 155.472656 57.886719 L 155.261719 57.886719 Z M 155.261719 57.886719 L 156.824219 57.886719 L 156.824219 58.078125 L 155.261719 58.078125 Z M 155.261719 57.886719 " clip-rule="nonzero"/></clipPath><clipPath id="3e7f4092b4"><path d="M 0.261719 0.617188 L 1.824219 0.617188 L 1.824219 0.808594 L 0.261719 0.808594 Z M 0.261719 0.808594 L 0.472656 0.808594 L 0.472656 1.722656 L 0.261719 1.722656 Z M 0.261719 1.722656 L 1.796875 1.722656 L 1.796875 1.914062 L 0.261719 1.914062 Z M 0.261719 1.914062 L 0.472656 1.914062 L 0.472656 2.886719 L 0.261719 2.886719 Z M 0.261719 2.886719 L 1.824219 2.886719 L 1.824219 3.078125 L 0.261719 3.078125 Z M 0.261719 2.886719 " clip-rule="nonzero"/></clipPath><clipPath id="78f6c5056f"><rect x="0" width="2" y="0" height="4"/></clipPath><clipPath id="cd5fd132f4"><path d="M 158.074219 55.617188 L 160.324219 55.617188 L 160.324219 57.867188 L 158.074219 57.867188 Z M 158.074219 55.617188 " clip-rule="nonzero"/></clipPath><clipPath id="565e56ee39"><path d="M 161.351562 55.621094 L 163.28125 55.621094 L 163.28125 58.132812 L 161.351562 58.132812 Z M 161.351562 55.621094 " clip-rule="nonzero"/></clipPath><clipPath id="3fb1e64f85"><path d="M 161.359375 55.621094 L 161.570312 55.621094 L 161.570312 57.132812 C 161.570312 57.632812 161.832031 57.933594 162.316406 57.933594 C 162.804688 57.933594 163.0625 57.632812 163.0625 57.132812 L 163.0625 55.621094 L 163.277344 55.621094 L 163.277344 57.136719 C 163.277344 57.746094 162.949219 58.125 162.316406 58.125 C 161.6875 58.125 161.359375 57.742188 161.359375 57.136719 Z M 161.359375 55.621094 " clip-rule="nonzero"/></clipPath><clipPath id="1c10aadedb"><path d="M 0.351562 0.621094 L 2.28125 0.621094 L 2.28125 3.132812 L 0.351562 3.132812 Z M 0.351562 0.621094 " clip-rule="nonzero"/></clipPath><clipPath id="1ec9d54c52"><path d="M 0.359375 0.621094 L 0.570312 0.621094 L 0.570312 2.132812 C 0.570312 2.632812 0.832031 2.933594 1.316406 2.933594 C 1.804688 2.933594 2.0625 2.632812 2.0625 2.132812 L 2.0625 0.621094 L 2.277344 0.621094 L 2.277344 2.136719 C 2.277344 2.746094 1.949219 3.125 1.316406 3.125 C 0.6875 3.125 0.359375 2.742188 0.359375 2.136719 Z M 0.359375 0.621094 " clip-rule="nonzero"/></clipPath><clipPath id="36cbc5568e"><rect x="0" width="3" y="0" height="4"/></clipPath><clipPath id="d882ce0186"><path d="M 164.53125 55.574219 L 166.679688 55.574219 L 166.679688 58.132812 L 164.53125 58.132812 Z M 164.53125 55.574219 " clip-rule="nonzero"/></clipPath><clipPath id="098cc9b421"><path d="M 164.53125 56.851562 C 164.53125 56.097656 165.082031 55.582031 165.769531 55.582031 C 166.167969 55.582031 166.460938 55.757812 166.671875 56.019531 L 166.492188 56.132812 C 166.339844 55.917969 166.070312 55.773438 165.769531 55.773438 C 165.199219 55.773438 164.753906 56.210938 164.753906 56.851562 C 164.753906 57.488281 165.199219 57.933594 165.769531 57.933594 C 166.070312 57.933594 166.339844 57.789062 166.492188 57.574219 L 166.671875 57.683594 C 166.453125 57.953125 166.167969 58.125 165.769531 58.125 C 165.082031 58.125 164.53125 57.609375 164.53125 56.851562 Z M 164.53125 56.851562 " clip-rule="nonzero"/></clipPath><clipPath id="43cd4ac2c5"><path d="M 0.53125 0.574219 L 2.679688 0.574219 L 2.679688 3.132812 L 0.53125 3.132812 Z M 0.53125 0.574219 " clip-rule="nonzero"/></clipPath><clipPath id="8eaee0dfc6"><path d="M 0.53125 1.851562 C 0.53125 1.097656 1.082031 0.582031 1.769531 0.582031 C 2.167969 0.582031 2.460938 0.757812 2.671875 1.019531 L 2.492188 1.132812 C 2.339844 0.917969 2.070312 0.773438 1.769531 0.773438 C 1.199219 0.773438 0.753906 1.210938 0.753906 1.851562 C 0.753906 2.488281 1.199219 2.933594 1.769531 2.933594 C 2.070312 2.933594 2.339844 2.789062 2.492188 2.574219 L 2.671875 2.683594 C 2.453125 2.953125 2.167969 3.125 1.769531 3.125 C 1.082031 3.125 0.53125 2.609375 0.53125 1.851562 Z M 0.53125 1.851562 " clip-rule="nonzero"/></clipPath><clipPath id="3e96465023"><rect x="0" width="3" y="0" height="4"/></clipPath><clipPath id="42a542ed2a"><path d="M 167.570312 55.617188 L 169.820312 55.617188 L 169.820312 57.867188 L 167.570312 57.867188 Z M 167.570312 55.617188 " clip-rule="nonzero"/></clipPath><clipPath id="899e9ffd4f"><path d="M 170.5 55.617188 L 172.328125 55.617188 L 172.328125 55.808594 L 170.5 55.808594 Z M 171.308594 55.808594 L 171.523438 55.808594 L 171.523438 58.085938 L 171.308594 58.085938 Z M 171.308594 55.808594 " clip-rule="nonzero"/></clipPath><clipPath id="97f402e24f"><path d="M 0.5 0.617188 L 2.328125 0.617188 L 2.328125 0.808594 L 0.5 0.808594 Z M 1.308594 0.808594 L 1.523438 0.808594 L 1.523438 3.085938 L 1.308594 3.085938 Z M 1.308594 0.808594 " clip-rule="nonzero"/></clipPath><clipPath id="f06cb0e66a"><rect x="0" width="3" y="0" height="4"/></clipPath><clipPath id="65e591757f"><path d="M 173.503906 55.617188 L 173.714844 55.617188 L 173.714844 58.085938 L 173.503906 58.085938 Z M 173.503906 55.617188 " clip-rule="nonzero"/></clipPath><clipPath id="d87f818de4"><path d="M 0.503906 0.617188 L 0.714844 0.617188 L 0.714844 3.085938 L 0.503906 3.085938 Z M 0.503906 0.617188 " clip-rule="nonzero"/></clipPath><clipPath id="395410c602"><rect x="0" width="1" y="0" height="4"/></clipPath><clipPath id="c1252ae861"><path d="M 174.96875 55.582031 L 177.21875 55.582031 L 177.21875 57.832031 L 174.96875 57.832031 Z M 174.96875 55.582031 " clip-rule="nonzero"/></clipPath><clipPath id="608bc4632b"><path d="M 178.589844 55.609375 L 180.570312 55.609375 L 180.570312 58.089844 L 178.589844 58.089844 Z M 178.589844 55.609375 " clip-rule="nonzero"/></clipPath><clipPath id="2cb22c819a"><path d="M 180.363281 58.085938 L 178.808594 55.953125 L 178.808594 58.085938 L 178.597656 58.085938 L 178.597656 55.617188 L 178.8125 55.617188 L 180.359375 57.71875 L 180.359375 55.617188 L 180.570312 55.617188 L 180.570312 58.085938 Z M 180.363281 58.085938 " clip-rule="nonzero"/></clipPath><clipPath id="e69f400deb"><path d="M 0.589844 0.609375 L 2.570312 0.609375 L 2.570312 3.089844 L 0.589844 3.089844 Z M 0.589844 0.609375 " clip-rule="nonzero"/></clipPath><clipPath id="c993ee4ec8"><path d="M 2.363281 3.085938 L 0.808594 0.953125 L 0.808594 3.085938 L 0.597656 3.085938 L 0.597656 0.617188 L 0.8125 0.617188 L 2.359375 2.71875 L 2.359375 0.617188 L 2.570312 0.617188 L 2.570312 3.085938 Z M 2.363281 3.085938 " clip-rule="nonzero"/></clipPath><clipPath id="f886cca3b3"><rect x="0" width="3" y="0" height="4"/></clipPath><clipPath id="043eaa2c24"><path d="M 185.039062 55.609375 L 187.367188 55.609375 L 187.367188 58.089844 L 185.039062 58.089844 Z M 185.039062 55.609375 " clip-rule="nonzero"/></clipPath><clipPath id="282bf3079d"><path d="M 187.144531 58.085938 L 187.144531 55.894531 L 186.246094 58.085938 L 186.164062 58.085938 L 185.261719 55.894531 L 185.261719 58.085938 L 185.050781 58.085938 L 185.050781 55.617188 L 185.363281 55.617188 L 186.203125 57.664062 L 187.039062 55.617188 L 187.359375 55.617188 L 187.359375 58.085938 Z M 187.144531 58.085938 " clip-rule="nonzero"/></clipPath><clipPath id="221ad79e21"><path d="M 0.0390625 0.609375 L 2.367188 0.609375 L 2.367188 3.089844 L 0.0390625 3.089844 Z M 0.0390625 0.609375 " clip-rule="nonzero"/></clipPath><clipPath id="93e7534cd1"><path d="M 2.144531 3.085938 L 2.144531 0.894531 L 1.246094 3.085938 L 1.164062 3.085938 L 0.261719 0.894531 L 0.261719 3.085938 L 0.0507812 3.085938 L 0.0507812 0.617188 L 0.363281 0.617188 L 1.203125 2.664062 L 2.039062 0.617188 L 2.359375 0.617188 L 2.359375 3.085938 Z M 2.144531 3.085938 " clip-rule="nonzero"/></clipPath><clipPath id="d8c45c897f"><rect x="0" width="3" y="0" height="4"/></clipPath><clipPath id="12a5c4f9f8"><path d="M 188.609375 55.582031 L 190.859375 55.582031 L 190.859375 57.832031 L 188.609375 57.832031 Z M 188.609375 55.582031 " clip-rule="nonzero"/></clipPath><clipPath id="cb0edf6a3e"><path d="M 192.253906 55.617188 L 193.753906 55.617188 L 193.753906 57.867188 L 192.253906 57.867188 Z M 192.253906 55.617188 " clip-rule="nonzero"/></clipPath><clipPath id="f047cdcf40"><path d="M 195.25 55.617188 L 195.460938 55.617188 L 195.460938 58.085938 L 195.25 58.085938 Z M 195.25 55.617188 " clip-rule="nonzero"/></clipPath><clipPath id="5c6d39ef5d"><path d="M 0.25 0.617188 L 0.460938 0.617188 L 0.460938 3.085938 L 0.25 3.085938 Z M 0.25 0.617188 " clip-rule="nonzero"/></clipPath><clipPath id="30213d28f0"><rect x="0" width="1" y="0" height="4"/></clipPath><clipPath id="2b2124938c"><path d="M 196.804688 55.617188 L 197.015625 55.617188 L 197.015625 57.894531 L 196.804688 57.894531 Z M 196.804688 57.894531 L 198.210938 57.894531 L 198.210938 58.085938 L 196.804688 58.085938 Z M 196.804688 57.894531 " clip-rule="nonzero"/></clipPath><clipPath id="fa2355ab25"><path d="M 0.804688 0.617188 L 1.015625 0.617188 L 1.015625 2.894531 L 0.804688 2.894531 Z M 0.804688 2.894531 L 2.210938 2.894531 L 2.210938 3.085938 L 0.804688 3.085938 Z M 0.804688 2.894531 " clip-rule="nonzero"/></clipPath><clipPath id="2e4c477d17"><rect x="0" width="3" y="0" height="4"/></clipPath><clipPath id="16d76aaf6f"><path d="M 199.402344 55.617188 L 199.613281 55.617188 L 199.613281 58.085938 L 199.402344 58.085938 Z M 199.402344 55.617188 " clip-rule="nonzero"/></clipPath><clipPath id="a9a069ebb7"><path d="M 0.402344 0.617188 L 0.613281 0.617188 L 0.613281 3.085938 L 0.402344 3.085938 Z M 0.402344 0.617188 " clip-rule="nonzero"/></clipPath><clipPath id="2d4ae1cad8"><rect x="0" width="1" y="0" height="4"/></clipPath><clipPath id="09d23c055e"><path d="M 200.769531 55.617188 L 202.597656 55.617188 L 202.597656 55.808594 L 200.769531 55.808594 Z M 201.578125 55.808594 L 201.792969 55.808594 L 201.792969 58.085938 L 201.578125 58.085938 Z M 201.578125 55.808594 " clip-rule="nonzero"/></clipPath><clipPath id="5565a09d17"><path d="M 0.769531 0.617188 L 2.597656 0.617188 L 2.597656 0.808594 L 0.769531 0.808594 Z M 1.578125 0.808594 L 1.792969 0.808594 L 1.792969 3.085938 L 1.578125 3.085938 Z M 1.578125 0.808594 " clip-rule="nonzero"/></clipPath><clipPath id="f0a98e7fc0"><rect x="0" width="3" y="0" height="4"/></clipPath><clipPath id="be12cff1bf"><path d="M 203.511719 55.609375 L 205.695312 55.609375 L 205.695312 58.089844 L 203.511719 58.089844 Z M 203.511719 55.609375 " clip-rule="nonzero"/></clipPath><clipPath id="9caa8b680e"><path d="M 204.5 58.085938 L 204.5 57.03125 L 203.519531 55.617188 L 203.773438 55.617188 L 204.605469 56.832031 L 205.4375 55.617188 L 205.695312 55.617188 L 204.714844 57.03125 L 204.714844 58.085938 Z M 204.5 58.085938 " clip-rule="nonzero"/></clipPath><clipPath id="5bb904713d"><path d="M 0.511719 0.609375 L 2.695312 0.609375 L 2.695312 3.089844 L 0.511719 3.089844 Z M 0.511719 0.609375 " clip-rule="nonzero"/></clipPath><clipPath id="fefd843571"><path d="M 1.5 3.085938 L 1.5 2.03125 L 0.519531 0.617188 L 0.773438 0.617188 L 1.605469 1.832031 L 2.4375 0.617188 L 2.695312 0.617188 L 1.714844 2.03125 L 1.714844 3.085938 Z M 1.5 3.085938 " clip-rule="nonzero"/></clipPath><clipPath id="0858c54408"><rect x="0" width="3" y="0" height="4"/></clipPath><clipPath id="0561df4788"><path d="M 152.210938 56.273438 L 153.710938 56.273438 L 153.710938 57.773438 L 152.210938 57.773438 Z M 152.210938 56.273438 " clip-rule="nonzero"/></clipPath><clipPath id="26a27e526c"><path d="M 182.003906 56.273438 L 183.503906 56.273438 L 183.503906 57.773438 L 182.003906 57.773438 Z M 182.003906 56.273438 " clip-rule="nonzero"/></clipPath></defs><g clip-path="url(#e211eb4a0a)"><path fill="#028b86" d="M 104.542969 54.59375 L 95.226562 60.875 L 96.550781 61.769531 C 97.445312 62.371094 98.605469 62.371094 99.5 61.769531 L 104.542969 58.367188 L 106.417969 57.105469 C 107.175781 56.59375 107.628906 55.734375 107.628906 54.808594 L 107.628906 52.511719 Z M 107.628906 36.730469 L 107.628906 48.554688 C 107.628906 49.476562 107.175781 50.332031 106.425781 50.839844 L 104.542969 52.109375 L 94.15625 59.113281 L 94.15625 56.808594 C 94.15625 55.890625 94.605469 55.035156 95.355469 54.527344 L 102.519531 49.699219 C 103.785156 48.847656 104.542969 47.402344 104.542969 45.855469 L 104.777344 40.121094 C 104.777344 39.207031 105.578125 38.113281 106.324219 37.605469 Z M 107.628906 36.730469 " fill-opacity="1" fill-rule="nonzero"/></g><g clip-path="url(#aac0e602a9)"><path fill="#028b86" d="M 109.851562 52.511719 L 109.851562 54.808594 C 109.851562 55.734375 110.304688 56.59375 111.058594 57.105469 L 112.933594 58.367188 L 117.980469 61.769531 C 118.875 62.371094 120.035156 62.371094 120.929688 61.769531 L 122.253906 60.875 L 112.933594 54.59375 Z M 111.152344 37.605469 C 111.902344 38.113281 112.703125 39.207031 112.703125 40.121094 L 112.933594 45.855469 C 112.933594 47.402344 113.695312 48.847656 114.960938 49.699219 L 122.125 54.527344 C 122.871094 55.035156 123.324219 55.890625 123.324219 56.808594 L 123.324219 59.113281 L 112.933594 52.109375 L 111.054688 50.839844 C 110.304688 50.332031 109.851562 49.472656 109.851562 48.554688 L 109.851562 36.730469 Z M 111.152344 37.605469 " fill-opacity="1" fill-rule="nonzero"/></g><g clip-path="url(#8b3af03b44)"><g transform="matrix(1, 0, 0, 1, 128, 41)"><g clip-path="url(#b55a8c639b)"><g clip-path="url(#8b0c6bbc37)"><path fill="#193355" d="M 0.617188 0.78125 L 2.953125 0.78125 L 2.953125 10.9375 L 0.617188 10.9375 Z M 0.617188 0.78125 " fill-opacity="1" fill-rule="nonzero"/></g></g></g></g><g clip-path="url(#de75868cb7)"><g clip-path="url(#6ebd66b140)"><g transform="matrix(1, 0, 0, 1, 133, 41)"><g clip-path="url(#7f63de0b04)"><g clip-path="url(#ac8c0dddc4)"><g clip-path="url(#e178b526f1)"><path fill="#193355" d="M 0.449219 0.78125 L 14.039062 0.78125 L 14.039062 10.929688 L 0.449219 10.929688 Z M 0.449219 0.78125 " fill-opacity="1" fill-rule="nonzero"/></g></g></g></g></g></g><g clip-path="url(#9634c3a98e)"><g transform="matrix(1, 0, 0, 1, 148, 41)"><g clip-path="url(#3e1e292174)"><g clip-path="url(#418bafeabb)"><path fill="#193355" d="M 0.769531 0.78125 L 13.5 0.78125 L 13.5 10.933594 L 0.769531 10.933594 Z M 0.769531 0.78125 " fill-opacity="1" fill-rule="nonzero"/></g></g></g></g><g clip-path="url(#06fdbf1c5d)"><path fill="#193355" d="M 165.535156 50.167969 L 165.535156 46.019531 L 163.238281 46.019531 L 163.238281 52.261719 L 175.222656 52.261719 L 175.222656 50.167969 Z M 163.238281 43.855469 L 175.222656 43.855469 L 175.222656 41.78125 L 163.238281 41.78125 Z M 163.238281 43.855469 " fill-opacity="1" fill-rule="nonzero"/></g><g clip-path="url(#72afbc0a88)"><g transform="matrix(1, 0, 0, 1, 166, 45)"><g clip-path="url(#0203de4501)"><g clip-path="url(#d4d1312935)"><path fill="#43a5a2" d="M 0.535156 0.878906 L 8.195312 0.878906 L 8.195312 2.84375 L 0.535156 2.84375 Z M 0.535156 0.878906 " fill-opacity="1" fill-rule="nonzero"/></g></g></g></g><g clip-path="url(#065ba0d19d)"><g clip-path="url(#b55d3a498e)"><g transform="matrix(1, 0, 0, 1, 176, 41)"><g clip-path="url(#6a00f0361e)"><g clip-path="url(#20dc6fece5)"><g clip-path="url(#884302055b)"><path fill="#193355" d="M 0.554688 0.691406 L 14.359375 0.691406 L 14.359375 11.015625 L 0.554688 11.015625 Z M 0.554688 0.691406 " fill-opacity="1" fill-rule="nonzero"/></g></g></g></g></g></g><g clip-path="url(#d8cc09615c)"><g transform="matrix(1, 0, 0, 1, 192, 41)"><g clip-path="url(#0bdd0e66a9)"><g clip-path="url(#82eef21fd9)"><path fill="#193355" d="M 0.015625 0.78125 L 13.710938 0.78125 L 13.710938 10.925781 L 0.015625 10.925781 Z M 0.015625 0.78125 " fill-opacity="1" fill-rule="nonzero"/></g></g></g></g><g clip-path="url(#b977a1ef94)"><g transform="matrix(1, 0, 0, 1, 128, 55)"><g clip-path="url(#f7bcee3e7f)"><g clip-path="url(#4d88ce0aba)"><path fill="#576a7b" d="M 0.628906 0.617188 L 0.839844 0.617188 L 0.839844 3.085938 L 0.628906 3.085938 Z M 0.628906 0.617188 " fill-opacity="1" fill-rule="nonzero"/></g></g></g></g><g clip-path="url(#5d80467d5c)"><g clip-path="url(#fee2c64efa)"><g transform="matrix(1, 0, 0, 1, 130, 55)"><g clip-path="url(#bb839f6651)"><g clip-path="url(#73bbdc4987)"><g clip-path="url(#c3fbe033eb)"><path fill="#576a7b" d="M 0.171875 0.617188 L 2.144531 0.617188 L 2.144531 3.082031 L 0.171875 3.082031 Z M 0.171875 0.617188 " fill-opacity="1" fill-rule="nonzero"/></g></g></g></g></g></g><g clip-path="url(#d8bce84f08)"><path fill="#576a7b" d="M 133.730469 57.683594 L 134.363281 57.683594 C 135.082031 57.683594 135.492188 57.261719 135.492188 56.738281 C 135.492188 56.214844 135.085938 55.792969 134.363281 55.792969 L 133.730469 55.792969 Z M 133.496094 57.855469 L 133.496094 55.617188 L 134.363281 55.617188 C 135.207031 55.617188 135.738281 56.125 135.738281 56.738281 C 135.738281 57.359375 135.207031 57.855469 134.363281 57.855469 Z M 133.496094 57.855469 " fill-opacity="1" fill-rule="nonzero"/></g><g clip-path="url(#2c5396b0bb)"><g clip-path="url(#02e1d244f7)"><g transform="matrix(1, 0, 0, 1, 136, 55)"><g clip-path="url(#81163d9012)"><g clip-path="url(#a3f9e70a8d)"><g clip-path="url(#dd47ab60c2)"><path fill="#576a7b" d="M 0.78125 0.621094 L 2.699219 0.621094 L 2.699219 3.125 L 0.78125 3.125 Z M 0.78125 0.621094 " fill-opacity="1" fill-rule="nonzero"/></g></g></g></g></g></g><g clip-path="url(#8ed22feec5)"><g clip-path="url(#7e728459e6)"><g transform="matrix(1, 0, 0, 1, 139, 55)"><g clip-path="url(#fdee77dc62)"><g clip-path="url(#16f99eaa9d)"><g clip-path="url(#55decc965f)"><path fill="#576a7b" d="M 0.90625 0.582031 L 2.679688 0.582031 L 2.679688 3.121094 L 0.90625 3.121094 Z M 0.90625 0.582031 " fill-opacity="1" fill-rule="nonzero"/></g></g></g></g></g></g><g clip-path="url(#c600b86b2f)"><g transform="matrix(1, 0, 0, 1, 142, 55)"><g clip-path="url(#3a932080e6)"><g clip-path="url(#2f5cd8f4fb)"><path fill="#576a7b" d="M 0.71875 0.617188 L 2.546875 0.617188 L 2.546875 3.089844 L 0.71875 3.089844 Z M 0.71875 0.617188 " fill-opacity="1" fill-rule="nonzero"/></g></g></g></g><g clip-path="url(#3505837d69)"><path fill="#576a7b" d="M 146.507812 55.792969 L 145.902344 55.792969 L 145.902344 56.753906 L 146.507812 56.753906 C 146.792969 56.753906 146.988281 56.554688 146.988281 56.273438 C 146.988281 55.992188 146.792969 55.792969 146.507812 55.792969 M 146.984375 57.855469 L 146.378906 56.929688 L 145.902344 56.929688 L 145.902344 57.855469 L 145.71875 57.855469 L 145.71875 55.617188 L 146.527344 55.617188 C 146.898438 55.617188 147.183594 55.863281 147.183594 56.273438 C 147.183594 56.679688 146.90625 56.902344 146.585938 56.917969 L 147.210938 57.855469 Z M 146.984375 57.855469 " fill-opacity="1" fill-rule="nonzero"/></g><g clip-path="url(#7e3e4ca64a)"><g clip-path="url(#b60942b645)"><g transform="matrix(1, 0, 0, 1, 148, 55)"><g clip-path="url(#3e8ba1f784)"><g clip-path="url(#43c60dc89b)"><g clip-path="url(#3433044c46)"><path fill="#576a7b" d="M 0.335938 0.617188 L 2.511719 0.617188 L 2.511719 3.082031 L 0.335938 3.082031 Z M 0.335938 0.617188 " fill-opacity="1" fill-rule="nonzero"/></g></g></g></g></g></g><g clip-path="url(#d7711ea135)"><g transform="matrix(1, 0, 0, 1, 155, 55)"><g clip-path="url(#78f6c5056f)"><g clip-path="url(#3e7f4092b4)"><path fill="#576a7b" d="M 0.261719 0.617188 L 1.824219 0.617188 L 1.824219 3.082031 L 0.261719 3.082031 Z M 0.261719 0.617188 " fill-opacity="1" fill-rule="nonzero"/></g></g></g></g><g clip-path="url(#cd5fd132f4)"><path fill="#576a7b" d="M 158.308594 57.683594 L 158.941406 57.683594 C 159.660156 57.683594 160.070312 57.261719 160.070312 56.738281 C 160.070312 56.214844 159.664062 55.792969 158.941406 55.792969 L 158.308594 55.792969 Z M 158.074219 57.855469 L 158.074219 55.617188 L 158.941406 55.617188 C 159.785156 55.617188 160.316406 56.125 160.316406 56.738281 C 160.316406 57.359375 159.785156 57.855469 158.941406 57.855469 Z M 158.074219 57.855469 " fill-opacity="1" fill-rule="nonzero"/></g><g clip-path="url(#565e56ee39)"><g clip-path="url(#3fb1e64f85)"><g transform="matrix(1, 0, 0, 1, 161, 55)"><g clip-path="url(#36cbc5568e)"><g clip-path="url(#1c10aadedb)"><g clip-path="url(#1ec9d54c52)"><path fill="#576a7b" d="M 0.359375 0.621094 L 2.277344 0.621094 L 2.277344 3.125 L 0.359375 3.125 Z M 0.359375 0.621094 " fill-opacity="1" fill-rule="nonzero"/></g></g></g></g></g></g><g clip-path="url(#d882ce0186)"><g clip-path="url(#098cc9b421)"><g transform="matrix(1, 0, 0, 1, 164, 55)"><g clip-path="url(#3e96465023)"><g clip-path="url(#43cd4ac2c5)"><g clip-path="url(#8eaee0dfc6)"><path fill="#576a7b" d="M 0.53125 0.582031 L 2.671875 0.582031 L 2.671875 3.125 L 0.53125 3.125 Z M 0.53125 0.582031 " fill-opacity="1" fill-rule="nonzero"/></g></g></g></g></g></g><g clip-path="url(#42a542ed2a)"><path fill="#576a7b" d="M 168.6875 55.804688 L 168.113281 57.132812 L 169.265625 57.132812 Z M 169.574219 57.855469 L 169.332031 57.304688 L 168.046875 57.304688 L 167.804688 57.855469 L 167.574219 57.855469 L 168.558594 55.617188 L 168.816406 55.617188 L 169.804688 57.855469 Z M 169.574219 57.855469 " fill-opacity="1" fill-rule="nonzero"/></g><g clip-path="url(#899e9ffd4f)"><g transform="matrix(1, 0, 0, 1, 170, 55)"><g clip-path="url(#f06cb0e66a)"><g clip-path="url(#97f402e24f)"><path fill="#576a7b" d="M 0.5 0.617188 L 2.328125 0.617188 L 2.328125 3.089844 L 0.5 3.089844 Z M 0.5 0.617188 " fill-opacity="1" fill-rule="nonzero"/></g></g></g></g><g clip-path="url(#65e591757f)"><g transform="matrix(1, 0, 0, 1, 173, 55)"><g clip-path="url(#395410c602)"><g clip-path="url(#d87f818de4)"><path fill="#576a7b" d="M 0.503906 0.617188 L 0.714844 0.617188 L 0.714844 3.085938 L 0.503906 3.085938 Z M 0.503906 0.617188 " fill-opacity="1" fill-rule="nonzero"/></g></g></g></g><g clip-path="url(#c1252ae861)"><path fill="#576a7b" d="M 176.089844 55.75 C 175.535156 55.75 175.191406 56.144531 175.191406 56.691406 C 175.191406 57.234375 175.535156 57.632812 176.089844 57.632812 C 176.632812 57.632812 176.988281 57.234375 176.988281 56.691406 C 176.988281 56.144531 176.632812 55.75 176.089844 55.75 M 176.089844 55.582031 C 176.753906 55.582031 177.191406 56.066406 177.191406 56.691406 C 177.191406 57.320312 176.753906 57.800781 176.089844 57.800781 C 175.421875 57.800781 174.984375 57.320312 174.984375 56.691406 C 174.984375 56.066406 175.421875 55.582031 176.089844 55.582031 " fill-opacity="1" fill-rule="nonzero"/></g><g clip-path="url(#608bc4632b)"><g clip-path="url(#2cb22c819a)"><g transform="matrix(1, 0, 0, 1, 178, 55)"><g clip-path="url(#f886cca3b3)"><g clip-path="url(#e69f400deb)"><g clip-path="url(#c993ee4ec8)"><path fill="#576a7b" d="M 0.597656 0.617188 L 2.570312 0.617188 L 2.570312 3.082031 L 0.597656 3.082031 Z M 0.597656 0.617188 " fill-opacity="1" fill-rule="nonzero"/></g></g></g></g></g></g><g clip-path="url(#043eaa2c24)"><g clip-path="url(#282bf3079d)"><g transform="matrix(1, 0, 0, 1, 185, 55)"><g clip-path="url(#d8c45c897f)"><g clip-path="url(#221ad79e21)"><g clip-path="url(#93e7534cd1)"><path fill="#576a7b" d="M 0.0507812 0.617188 L 2.359375 0.617188 L 2.359375 3.089844 L 0.0507812 3.089844 Z M 0.0507812 0.617188 " fill-opacity="1" fill-rule="nonzero"/></g></g></g></g></g></g><g clip-path="url(#12a5c4f9f8)"><path fill="#576a7b" d="M 189.730469 55.75 C 189.179688 55.75 188.832031 56.144531 188.832031 56.691406 C 188.832031 57.234375 189.179688 57.632812 189.730469 57.632812 C 190.277344 57.632812 190.628906 57.234375 190.628906 56.691406 C 190.628906 56.144531 190.277344 55.75 189.730469 55.75 M 189.730469 55.582031 C 190.394531 55.582031 190.835938 56.066406 190.835938 56.691406 C 190.835938 57.320312 190.394531 57.800781 189.730469 57.800781 C 189.066406 57.800781 188.628906 57.320312 188.628906 56.691406 C 188.628906 56.066406 189.066406 55.582031 189.730469 55.582031 " fill-opacity="1" fill-rule="nonzero"/></g><g clip-path="url(#cb0edf6a3e)"><path fill="#576a7b" d="M 192.433594 57.679688 L 193.113281 57.679688 C 193.390625 57.679688 193.558594 57.511719 193.558594 57.238281 C 193.558594 57.011719 193.40625 56.796875 193.113281 56.796875 L 192.433594 56.796875 Z M 192.433594 56.621094 L 193.101562 56.621094 C 193.371094 56.621094 193.515625 56.441406 193.515625 56.210938 C 193.515625 55.980469 193.371094 55.792969 193.101562 55.792969 L 192.433594 55.792969 Z M 192.253906 57.855469 L 192.253906 55.621094 L 193.121094 55.621094 C 193.476562 55.621094 193.707031 55.835938 193.707031 56.191406 C 193.707031 56.472656 193.523438 56.660156 193.335938 56.703125 C 193.558594 56.738281 193.746094 56.988281 193.746094 57.25 C 193.746094 57.625 193.519531 57.855469 193.140625 57.855469 Z M 192.253906 57.855469 " fill-opacity="1" fill-rule="nonzero"/></g><g clip-path="url(#f047cdcf40)"><g transform="matrix(1, 0, 0, 1, 195, 55)"><g clip-path="url(#30213d28f0)"><g clip-path="url(#5c6d39ef5d)"><path fill="#576a7b" d="M 0.25 0.617188 L 0.460938 0.617188 L 0.460938 3.085938 L 0.25 3.085938 Z M 0.25 0.617188 " fill-opacity="1" fill-rule="nonzero"/></g></g></g></g><g clip-path="url(#2b2124938c)"><g transform="matrix(1, 0, 0, 1, 196, 55)"><g clip-path="url(#2e4c477d17)"><g clip-path="url(#fa2355ab25)"><path fill="#576a7b" d="M 0.804688 0.617188 L 2.210938 0.617188 L 2.210938 3.082031 L 0.804688 3.082031 Z M 0.804688 0.617188 " fill-opacity="1" fill-rule="nonzero"/></g></g></g></g><g clip-path="url(#16d76aaf6f)"><g transform="matrix(1, 0, 0, 1, 199, 55)"><g clip-path="url(#2d4ae1cad8)"><g clip-path="url(#a9a069ebb7)"><path fill="#576a7b" d="M 0.402344 0.617188 L 0.613281 0.617188 L 0.613281 3.085938 L 0.402344 3.085938 Z M 0.402344 0.617188 " fill-opacity="1" fill-rule="nonzero"/></g></g></g></g><g clip-path="url(#09d23c055e)"><g transform="matrix(1, 0, 0, 1, 200, 55)"><g clip-path="url(#f0a98e7fc0)"><g clip-path="url(#5565a09d17)"><path fill="#576a7b" d="M 0.769531 0.617188 L 2.597656 0.617188 L 2.597656 3.089844 L 0.769531 3.089844 Z M 0.769531 0.617188 " fill-opacity="1" fill-rule="nonzero"/></g></g></g></g><g clip-path="url(#be12cff1bf)"><g clip-path="url(#9caa8b680e)"><g transform="matrix(1, 0, 0, 1, 203, 55)"><g clip-path="url(#0858c54408)"><g clip-path="url(#5bb904713d)"><g clip-path="url(#fefd843571)"><path fill="#576a7b" d="M 0.519531 0.617188 L 2.695312 0.617188 L 2.695312 3.082031 L 0.519531 3.082031 Z M 0.519531 0.617188 " fill-opacity="1" fill-rule="nonzero"/></g></g></g></g></g></g><g clip-path="url(#0561df4788)"><path fill="#41a4a6" d="M 152.210938 56.847656 C 152.210938 57.167969 152.46875 57.425781 152.785156 57.425781 C 153.105469 57.425781 153.363281 57.167969 153.363281 56.847656 C 153.363281 56.53125 153.105469 56.273438 152.785156 56.273438 C 152.46875 56.273438 152.210938 56.53125 152.210938 56.847656 " fill-opacity="1" fill-rule="nonzero"/></g><g clip-path="url(#26a27e526c)"><path fill="#43a5a2" d="M 182.003906 56.847656 C 182.003906 57.167969 182.261719 57.425781 182.578125 57.425781 C 182.894531 57.425781 183.152344 57.167969 183.152344 56.847656 C 183.152344 56.53125 182.894531 56.273438 182.578125 56.273438 C 182.261719 56.273438 182.003906 56.53125 182.003906 56.847656 " fill-opacity="1" fill-rule="nonzero"/></g></svg>